<?xml version="1.0" encoding="UTF-8"?>
<svg id="Calque_2" xmlns="http://www.w3.org/2000/svg" version="1.1" xmlns:xlink="http://www.w3.org/1999/xlink" viewBox="0 0 512 512">
  <!-- Generator: Adobe Illustrator 29.8.4, SVG Export Plug-In . SVG Version: 2.1.1 Build 6)  -->
  <defs>
    <style>
      .st0 {
        fill: url(#Dégradé_sans_nom);
      }
    </style>
    <linearGradient id="Dégradé_sans_nom" data-name="Dégradé sans nom" x1="256" y1="479.8" x2="256" y2="33.2" gradientUnits="userSpaceOnUse">
      <stop offset="0" stop-color="#76c1a3"/>
      <stop offset=".4" stop-color="#00545c"/>
      <stop offset="1" stop-color="#00545c"/>
    </linearGradient>
  </defs>
  <path class="st0" d="M256,0C114.8,0,0,114.8,0,256s114.8,256,256,256,256-114.8,256-256S397.2,0,256,0ZM382.3,266h0s-45.1,0-45.1,0H35.5c-.2-3.3-.2-6.6-.2-10,0-118.7,93.7-215.5,211.2-220.5-7.1,12.4-14.1,23.9-19.7,30.7-15.6,19.2-36.3,64.3-42.3,78.3-4.9,11.5-28.1,26.7-36.5,31.9-1.9,1.2-3.1,3.2-3.1,5.5v58.8c0,3.6,2.9,6.5,6.5,6.5h10.1c3.6,0,6.5-2.9,6.5-6.5v-48.2c0-2.3,1.3-4.5,3.3-5.7l16.6-9.2c2.8-1.5,6.3-.8,8.2,1.7l44.5,48.6c1.2,1.3,1.8,2.9,1.8,4.6v8.1c0,3.6,2.9,6.5,6.5,6.5h16v-33.5c0-4.3,7.7-4.8,12.5-.3,13,12.3,10.8,19.3,11.8,30.5.2,2,1.5,3.3,5.8,3.3h10.1c2.8-.1,4.6-2.7,4.3-5.4-3-27.4-2.7-35-33.2-60.6-10.4-8.8-12.2-42.6-12.1-53.4.1-20.2-6.4-42.2-8.7-51.5-1.4-5.7,1-9.2,3.2-13.4,4.2-7.9,10-17.2,15.5-26.9,14.2,1.1,27.9,3.6,41.2,7.3-.2,27.1,0,57.1,0,64.2,0,12.5,19.4,81,21.8,89.5,0,.6.2,1.2.2,1.8v41.9c0,3.6,2.9,6.5,6.5,6.5h10.8c3.6,0,6.5-2.9,6.5-6.5v-44.9c0-3.7-.5-7.3-1.5-10.8-7.6-25.3-19.7-52.3-21.2-68.1-1.7-17-1-42.4,1.1-65.3,80.6,32.9,137.4,112,137.4,204.4s-.1,6.7-.2,10h-94.2ZM244.4,191.4h0c-.9,3.5-5.1,5.3-7.8,2.6-11.4-11.6-32.1-32.8-32.2-34.7-.2-2.2,20.5-49.2,28.4-67,1.5-3.4,6.8-3.5,8.2-.1,3.3,7.7,4.5,20.5,4.8,35.6.3,15.6,2.3,49-1.4,63.7Z"/>
</svg>