<?xml version="1.0" encoding="UTF-8"?>
<svg id="Calque_2" data-name="Calque 2" xmlns="http://www.w3.org/2000/svg" xmlns:xlink="http://www.w3.org/1999/xlink" viewBox="0 0 85.04 85.04">
  <defs>
    <style>
      .cls-1 {
        fill: url(#Dégradé_sans_nom_67);
      }

      .cls-2 {
        fill: url(#Dégradé_sans_nom_67-2);
      }
    </style>
    <linearGradient id="Dégradé_sans_nom_67" data-name="Dégradé sans nom 67" x1="59.74" y1="92.51" x2="59.74" y2="7.53" gradientUnits="userSpaceOnUse">
      <stop offset=".05" stop-color="#76c1a3"/>
      <stop offset=".43" stop-color="#00545c"/>
      <stop offset=".99" stop-color="#00545c"/>
    </linearGradient>
    <linearGradient id="Dégradé_sans_nom_67-2" data-name="Dégradé sans nom 67" x1="42.52" y1="92.51" x2="42.52" y2="7.47" xlink:href="#Dégradé_sans_nom_67"/>
  </defs>
  <g id="Rond_horizontal" data-name="Rond horizontal">
    <g>
      <path class="cls-1" d="M57.31,62.3c1.65,1.34,4.08,1.09,5.41-.56,1.34-1.65,1.09-4.08-.56-5.41-1.65-1.34-4.08-1.09-5.41.56-1.34,1.65-1.09,4.08.56,5.42Z"/>
      <path class="cls-2" d="M42.52,0C19.07,0,0,19.07,0,42.52s19.07,42.52,42.52,42.52,42.52-19.07,42.52-42.52S65.97,0,42.52,0ZM25.98,67.17c-1.05,0-1.91-.85-1.91-1.91s.85-1.91,1.91-1.91,1.91.85,1.91,1.91-.85,1.91-1.91,1.91ZM46.43,76.91h0c-.65,1.24-2.04,1.85-3.34,1.56.03.01-.49-.13-.73-.26,0,0,0,0-.01,0-.03-.02-.06-.04-.09-.05-.02-.01-.04-.02-.06-.04-.57-.34-1-.84-1.24-1.42-.3-.54-.57-1.12-.92-1.67-.4-.58-.68-.88-.94-1.09-.08-.07-1.36-1.22-2.45-1.36-.73-.07-1.42.11-2.08.15-.32.04-.66,0-.98-.11,0,0-.01,0-.02,0-.08-.03-.15-.06-.22-.1,0,0-.02,0-.02-.01,0,0,0,0,0,0-.08-.04-.16-.09-.23-.14,0,0,0,0,0,0-.86-.6-1.16-1.76-.67-2.72h0c.5-.96,1.62-1.38,2.61-1.02,0,0,0,0,0,0,.09.03.17.07.25.11,0,0,0,0,0,0,0,0,.01,0,.02.01.07.04.14.08.21.13h.01c.28.21.5.46.65.75.35.56.6,1.24,1.08,1.79.74.81,2.41,1.19,2.52,1.22.32.09.73.15,1.44.14.65-.03,1.28-.15,1.9-.21.61-.13,1.27-.07,1.88.2.02,0,.04.02.06.03.03.02.06.03.1.04,0,0,0,0,.01,0,.24.12.66.47.63.45.99.9,1.3,2.39.65,3.63ZM65.2,63.91s-.01.02-.02.02c-.05.06-.11.12-.16.18-.04.04-.07.08-.11.12-1.03,1.13-2.35,1.85-3.76,2.13-1.34.43-2.78.75-4.18,1.29-1.48.63-2.29,1.13-2.88,1.6-.13.1-1.52,1.13-2.7,2.5-1.16,1.42-2.95-.03-1.79-1.45,1.09-1.43,1.81-3.01,1.89-3.15.35-.68.66-1.58.98-3.15.24-1.47.25-2.95.4-4.35-.02-1.43.42-2.88,1.31-4.12.03-.04.06-.09.1-.13.05-.06.09-.13.14-.2,0,0,.01-.01.02-.02.38-.48,1.35-1.26,1.29-1.21,2.48-1.8,5.95-1.8,8.44.22h0c2.49,2.02,3.21,5.42,1.95,8.21.04-.07-.53,1.04-.92,1.51ZM59.95,44.18v2.74c0,2.89-3.94,2.89-3.94,0v-2.74h-4.6v8.45c0,2.56-3.38,2.56-3.38,0v-8.45h-4.02v13.38c0,2.89-3.73,2.89-3.73,0v-13.38h-4.72v19.16c0,2.56-3.38,2.56-3.38,0v-19.16h-4.29v10.79c0,2.89-3.81,2.89-3.81,0v-10.79H5.9c-.02-.55-.04-1.1-.04-1.66C5.86,22.8,21.43,6.73,40.94,5.9h0c-1.17,2.05-2.35,3.97-3.27,5.1-2.6,3.19-6.04,10.68-7.03,13.01-.81,1.91-4.67,4.43-6.06,5.3-.32.2-.51.54-.51.91v9.76c0,.59.48,1.07,1.07,1.07h1.68c.59,0,1.07-.48,1.07-1.07v-8c0-.39.21-.75.55-.94l2.76-1.52c.46-.26,1.04-.14,1.37.28l7.39,8.07c.19.21.3.49.3.77v1.34c0,.59.48,1.07,1.07,1.07h2.66v-5.56c0-.71,1.28-.8,2.07-.05,2.16,2.04,1.79,3.21,1.95,5.07.03.32.26.55.97.55l1.68-.02c.46,0,.77-.43.72-.88-.5-4.55-.46-5.81-5.52-10.06-1.73-1.46-2.02-7.07-2.01-8.87.03-3.35-1.07-7-1.45-8.55-.23-.95.17-1.53.53-2.22.7-1.32,1.66-2.87,2.57-4.46,2.35.19,4.64.6,6.85,1.21-.03,4.51,0,9.49,0,10.66,0,2.08,3.21,13.46,3.62,14.87.01.1.03.2.04.29v6.95c0,.59.48,1.07,1.07,1.07h1.8c.59,0,1.07-.48,1.07-1.07v-7.46c0-.61-.08-1.21-.25-1.79-1.26-4.21-3.27-8.69-3.53-11.31-.28-2.83-.17-7.04.19-10.85h0c13.39,5.46,22.83,18.6,22.83,33.95,0,.56-.02,1.11-.04,1.66h-19.19ZM40.59,31.79c-.15.59-.85.88-1.29.43-1.9-1.92-5.33-5.44-5.36-5.77-.03-.36,3.41-8.17,4.72-11.13.25-.56,1.13-.58,1.37-.02.54,1.27.75,3.41.8,5.92.05,2.59.38,8.14-.23,10.57Z"/>
    </g>
  </g>
</svg>