<?xml version="1.0" encoding="UTF-8"?> <svg xmlns="http://www.w3.org/2000/svg" width="35.843" height="34.899" viewBox="0 0 35.843 34.899"><g transform="translate(1.5 1.5)"><g transform="translate(0 0)"><path d="M0-1.5H11.126a1.5,1.5,0,0,1,1.5,1.5V31.9a1.5,1.5,0,0,1-1.5,1.5H0a1.5,1.5,0,0,1-1.5-1.5V0A1.5,1.5,0,0,1,0-1.5Zm9.626,3H1.5V30.4H9.626Z" fill="#f7f7f7"></path><path d="M0-1.5H21.686a1.5,1.5,0,0,1,1.5,1.5V16.311a1.5,1.5,0,0,1-1.5,1.5H0a1.5,1.5,0,0,1-1.5-1.5V0A1.5,1.5,0,0,1,0-1.5Zm20.186,3H1.5V14.811H20.186Z" transform="translate(11.126 15.588)" fill="#f7f7f7"></path><path d="M175.858,9936.521H165a1.5,1.5,0,0,1-1.135-2.481l10.858-12.555a1.5,1.5,0,0,1,2.635.981v12.555A1.5,1.5,0,0,1,175.858,9936.521Zm-7.578-3h6.078v-7.027Z" transform="translate(-153.874 -9919.432)" fill="#f7f7f7"></path><path d="M175.858,9936.521H165a1.5,1.5,0,0,1-1.135-2.481l10.858-12.555a1.5,1.5,0,0,1,2.635.981v12.555A1.5,1.5,0,0,1,175.858,9936.521Zm-7.578-3h6.078v-7.027Z" transform="translate(-143.016 -9919.432)" fill="#f7f7f7"></path></g></g></svg> 