<?xml version="1.0" encoding="UTF-8"?> <svg xmlns="http://www.w3.org/2000/svg" xmlns:xlink="http://www.w3.org/1999/xlink" width="40.182" height="40.182" viewBox="0 0 40.182 40.182"><defs><clipPath id="a"><rect width="13.211" height="13.211" transform="translate(0 13.211) rotate(-90)" fill="#fff"></rect></clipPath></defs><path d="M20.091,0A20.091,20.091,0,1,1,0,20.091,20.091,20.091,0,0,1,20.091,0Z" fill="#cb5abc"></path><g transform="translate(20.091 6.88)" clip-path="url(#a)"><path d="M12.289,1.8A10.5,10.5,0,0,0,8.206,21.959,10.5,10.5,0,0,0,16.373,2.62,10.426,10.426,0,0,0,12.289,1.8m0-1.8A12.289,12.289,0,1,1,0,12.289,12.289,12.289,0,0,1,12.289,0Z" transform="translate(-12.289 0.921)" fill="#fff"></path><path d="M7.374,1.7a5.669,5.669,0,0,0-4.009,9.678,5.669,5.669,0,0,0,8.018-8.018A5.632,5.632,0,0,0,7.374,1.7m0-1.7A7.374,7.374,0,1,1,0,7.374,7.374,7.374,0,0,1,7.374,0Z" transform="translate(-7.374 5.837)" fill="#fff"></path><path d="M3.352,1.666A1.686,1.686,0,1,0,5.038,3.352,1.688,1.688,0,0,0,3.352,1.666M3.352,0A3.352,3.352,0,1,1,0,3.352,3.352,3.352,0,0,1,3.352,0Z" transform="translate(-3.352 9.859)" fill="#fff"></path></g><g transform="translate(6.88 20.091)" clip-path="url(#a)"><path d="M12.289,1.8A10.5,10.5,0,0,0,8.206,21.959,10.5,10.5,0,0,0,16.373,2.62,10.426,10.426,0,0,0,12.289,1.8m0-1.8A12.289,12.289,0,1,1,0,12.289,12.289,12.289,0,0,1,12.289,0Z" transform="translate(0.921 -12.289)" fill="#fff"></path><path d="M7.374,1.7a5.669,5.669,0,0,0-4.009,9.678,5.669,5.669,0,0,0,8.018-8.018A5.632,5.632,0,0,0,7.374,1.7m0-1.7A7.374,7.374,0,1,1,0,7.374,7.374,7.374,0,0,1,7.374,0Z" transform="translate(5.837 -7.374)" fill="#fff"></path><path d="M3.352,1.666A1.686,1.686,0,1,0,5.038,3.352,1.688,1.688,0,0,0,3.352,1.666M3.352,0A3.352,3.352,0,1,1,0,3.352,3.352,3.352,0,0,1,3.352,0Z" transform="translate(9.859 -3.352)" fill="#fff"></path></g></svg> 