<?xml version="1.0" encoding="UTF-8"?> <svg xmlns="http://www.w3.org/2000/svg" width="40.299" height="40.299" viewBox="0 0 40.299 40.299"><path d="M20.149,0A20.149,20.149,0,1,1,0,20.149,20.149,20.149,0,0,1,20.149,0Z" fill="#ef4c2a"></path><g transform="translate(10.308 10.104)"><path d="M4.2,18.824H0V0H3A10.012,10.012,0,0,1,13,10v8.823H8.792v-2.6a2.294,2.294,0,1,0-4.587,0v2.6ZM6.88,7.662v4.386h3.686V7.662Zm-4.45,0v4.386H6.116V7.662ZM6.88,2.524V6.909h3.686v-.7A3.69,3.69,0,0,0,6.88,2.524Zm-4.45,0V6.909H6.116V2.524Z" transform="translate(5.826 0)" fill="#fff"></path><path d="M4.93,0h0a0,0,0,0,1,0,0V12.1a0,0,0,0,1,0,0H0a0,0,0,0,1,0,0V4.93A4.93,4.93,0,0,1,4.93,0Z" transform="translate(0 6.723)" fill="#fff"></path></g></svg> 