<?xml version="1.0" encoding="UTF-8"?> <svg xmlns="http://www.w3.org/2000/svg" width="35.843" height="36.981" viewBox="0 0 35.843 36.981"><g transform="translate(1.5 1.501)"><path d="M152,9906.643a1.5,1.5,0,0,1-1.372-2.1l6.138-13.951a1.5,1.5,0,0,1,2.746,1.209l-6.138,13.951A1.5,1.5,0,0,1,152,9906.643Z" transform="translate(-149.124 -9871.162)" fill="#f7f7f7"></path><path d="M158.14,9906.643a1.5,1.5,0,0,1-1.374-.9l-6.138-13.951a1.5,1.5,0,0,1,2.746-1.209l6.138,13.951a1.5,1.5,0,0,1-1.372,2.1Z" transform="translate(-128.174 -9871.162)" fill="#f7f7f7"></path><path d="M179.655,9896.073H146.812a1.5,1.5,0,0,1-1.5-1.5v-6.312a1.5,1.5,0,0,1,1.5-1.5h32.843a1.5,1.5,0,0,1,1.5,1.5v6.313A1.5,1.5,0,0,1,179.655,9896.073Zm-31.343-3h29.843v-3.312H148.312Z" transform="translate(-146.812 -9874.544)" fill="#f7f7f7"></path><path d="M146.812,9886.762h22.264a1.5,1.5,0,0,1,1.5,1.5v13.718a1.5,1.5,0,0,1-1.5,1.5H146.812a1.5,1.5,0,0,1-1.5-1.5v-13.718A1.5,1.5,0,0,1,146.812,9886.762Zm20.764,3H148.312v10.718h19.264Z" transform="translate(-141.522 -9888.263)" fill="#f7f7f7"></path></g></svg> 