<?xml version="1.0" encoding="UTF-8"?> <svg xmlns="http://www.w3.org/2000/svg" width="40.248" height="40.248" viewBox="0 0 40.248 40.248"><path d="M20.124,0A20.124,20.124,0,1,1,0,20.124,20.124,20.124,0,0,1,20.124,0Z" fill="#d87f25"></path><g transform="translate(14.765 9.695)"><path d="M0,10.609A3.247,3.247,0,0,1,2.52,7.433V.7a.7.7,0,1,1,1.4,0V7.433a3.257,3.257,0,0,1-.7,6.43A3.237,3.237,0,0,1,0,10.609Z" transform="translate(2.14 4.848)" fill="#fff"></path><path d="M1.359,14.7a4.255,4.255,0,0,0,4.2-4.307A4.306,4.306,0,0,0,2.842,6.36V-2.393A1.448,1.448,0,0,0,1.394-3.841H1.325A1.448,1.448,0,0,0-.124-2.393V6.36a4.306,4.306,0,0,0-2.717,4.031,4.255,4.255,0,0,0,4.2,4.307m0,1.159a5.237,5.237,0,0,1-2.1-.434,5.335,5.335,0,0,1-1.7-1.177A5.454,5.454,0,0,1-3.582,12.51,5.528,5.528,0,0,1-4,10.391a5.509,5.509,0,0,1,.967-3.132A5.392,5.392,0,0,1-1.283,5.634V-2.393A2.61,2.61,0,0,1,1.325-5h.069A2.61,2.61,0,0,1,4-2.393V5.634A5.391,5.391,0,0,1,5.752,7.259a5.509,5.509,0,0,1,.967,3.132A5.528,5.528,0,0,1,6.3,12.51a5.454,5.454,0,0,1-1.142,1.736,5.335,5.335,0,0,1-1.7,1.177A5.237,5.237,0,0,1,1.359,15.857Z" transform="translate(4 5)" fill="#fff"></path></g></svg> 