<?xml version="1.0" encoding="UTF-8"?> <svg xmlns="http://www.w3.org/2000/svg" width="89.914" height="89.914" viewBox="0 0 89.914 89.914"><path d="M44.957,0A44.957,44.957,0,1,1,0,44.957,44.957,44.957,0,0,1,44.957,0Z" fill="#24be71"></path><path d="M12.726,15.731c5.925-6.755,4.5-4.562-.948,4.8S7.445,40.489,7.445,44.34s3.031,3.621,2.735-.172a68.661,68.661,0,0,1-.12-7.521s10.511-2.631,15.419-11.432S21.587,0,21.587,0,17.355,2.031,5.34,11.846s0,24.08,0,24.08S6.8,22.486,12.726,15.731Z" transform="translate(35.325 19.576) rotate(9)" fill="#fff"></path></svg> 