<?xml version="1.0" encoding="UTF-8"?> <svg xmlns="http://www.w3.org/2000/svg" width="38" height="38" viewBox="0 0 38 38"><path d="M23.476,36.5H11.524a1.5,1.5,0,0,1-1.5-1.5V24.976H0a1.5,1.5,0,0,1-1.5-1.5V11.526a1.5,1.5,0,0,1,1.5-1.5H10.024V0a1.5,1.5,0,0,1,1.5-1.5H23.476a1.5,1.5,0,0,1,1.5,1.5V10.026H35a1.5,1.5,0,0,1,1.5,1.5V23.476a1.5,1.5,0,0,1-1.5,1.5H24.976V35A1.5,1.5,0,0,1,23.476,36.5Zm-10.451-3h8.951V23.476a1.5,1.5,0,0,1,1.5-1.5H33.5V13.026H23.476a1.5,1.5,0,0,1-1.5-1.5V1.5H13.024V11.526a1.5,1.5,0,0,1-1.5,1.5H1.5v8.949H11.524a1.5,1.5,0,0,1,1.5,1.5Z" transform="translate(1.5 1.501)"></path></svg> 