<?xml version="1.0" encoding="UTF-8"?> <svg xmlns="http://www.w3.org/2000/svg" id="Calque_2" data-name="Calque 2" viewBox="0 0 230 230"><defs><style> .cls-1 { fill: #012828; } .cls-2 { fill: #fff; } .cls-3 { fill: #00545c; } .cls-4 { fill: #76c1a3; } </style></defs><g id="services"><g><circle class="cls-4" cx="115" cy="115" r="115" transform="translate(-47.63 115) rotate(-45)"></circle><g><polygon class="cls-2" points="41.19 38.87 169.88 38.87 169.88 190.98 68.35 190.98 41.31 163.94 41.19 38.87"></polygon><path class="cls-3" d="M158.96,38.87h-10.61v-6.97h-21.32v-11.47h-43v11.47h-21.32v6.97h-21.53v126.85c0,13.95,11.32,25.27,25.28,25.27h58.79v-10.04h-29.65s-26.11,0-26.11,0c-10.09,0-18.26-8.18-18.26-18.27V48.91h11.48v2.05c0,6.87,5.56,12.43,12.43,12.43h60.76c6.87,0,12.44-5.57,12.44-12.43v-2.05h11.48v82.14s0,0,0,0v18.88h10.04V38.87h-10.92ZM90.08,26.48h30.9v5.42h-30.9v-5.42Z"></path><rect class="cls-2" x="130.47" y="152.2" width="46.8" height="43.36"></rect><path class="cls-1" d="M128.71,198.85c21.69,22.51,60.11,7.27,60.11-24.23,0-13.55-7.72-25.27-18.99-31.08-34.39-17.68-68.87,26.58-41.11,55.31ZM173.18,167.55l-21.91,21.92c-1.08,1.08-2.48,1.61-3.89,1.61s-2.82-.54-3.89-1.61l-8.96-8.95c-2.15-2.15-2.15-5.64,0-7.79,2.15-2.15,5.64-2.15,7.79,0l5.06,5.06,18.02-18.02c2.15-2.15,5.63-2.15,7.78,0,2.16,2.15,2.16,5.64,0,7.78Z"></path><g><rect class="cls-3" x="94.52" y="71.16" width="14.63" height="14.63" rx="3.25" ry="3.25"></rect><path class="cls-3" d="M148.13,92.1c0,3.3-3.36,5.98-7.51,5.98h-18.8c-4.15,0-7.51-2.68-7.51-5.98v-14.96c0-3.3,3.36-5.98,7.51-5.98h18.8c4.15,0,7.51,2.68,7.51,5.98v14.96Z"></path><path class="cls-3" d="M148.13,123.95c0,3.09-3.36,5.59-7.51,5.59h-18.8c-4.15,0-7.51-2.5-7.51-5.59v-14c0-3.09,3.36-5.59,7.51-5.59h18.8c4.15,0,7.51,2.5,7.51,5.59v14Z"></path><rect class="cls-3" x="94.52" y="137.56" width="14.63" height="14.63" rx="3.25" ry="3.25"></rect><rect class="cls-3" x="94.52" y="104.36" width="14.63" height="14.63" rx="3.25" ry="3.25"></rect><polygon class="cls-3" points="74.03 75.01 89.7 75.01 89.7 80.08 79.1 80.08 79.1 110.52 89.7 110.52 89.7 115.59 79.1 115.59 79.1 142.34 89.7 142.34 89.7 147.41 74.03 147.41 74.03 115.59 62.71 115.59 62.71 110.52 74.03 110.52 74.03 75.01"></polygon></g></g></g></g></svg> 