<?xml version="1.0" encoding="UTF-8"?> <svg xmlns="http://www.w3.org/2000/svg" id="Calque_2" data-name="Calque 2" viewBox="0 0 265.63 230.13"><defs><style> .cls-1 { fill: #012828; } .cls-2 { fill: #fff; } .cls-3 { fill: #00545c; } .cls-4 { fill: #7bc9d6; } .cls-5 { fill: #76c1a3; } </style></defs><g id="individualAction"><g><circle class="cls-4" cx="132.82" cy="115.06" r="115.06" transform="translate(-42.46 127.62) rotate(-45)"></circle><g><path class="cls-2" d="M237.06,105.62l-6.44-17.56c-3.82-10.42-15.48-15.82-25.9-12l-43.14,15.82-14.7-14.15c-2.61-2.51-6.8-2.43-9.31.18l-6.43,6.68c-2.51,2.61-2.43,6.8.18,9.31l6.83,6.57-25.33,9.29c-10.42,3.82-15.82,15.48-12,25.9l6.44,17.56c3.82,10.42,52.6,14.17,87.96-10.75l29.83-10.94c10.42-3.82,15.82-15.48,12-25.9Z"></path><path class="cls-3" d="M156.32,94.41h-34.49c1.51-2.64,1.31-6.07-.76-8.52l-2.99-3.54c-2.64-3.13-7.37-3.53-10.5-.89l-17.17,14.49c-.51.43-.94.91-1.31,1.43l-36.62.79c-10.66.23-19.2,9.14-18.97,19.8l.44,20.28c.23,10.66,9.14,19.2,19.8,18.97l64.85-1.4c5.03-.11,9.58-2.15,12.97-5.39h19.55c3.26,0,5.92-2.67,5.92-5.92v-8.79c0-1.93-.93-3.64-2.37-4.73,2.47-.72,4.28-3,4.28-5.69v-6.17c0-1.7-.73-3.24-1.89-4.32,2.91-.37,5.18-2.87,5.18-5.87v-8.61c0-3.26-2.67-5.92-5.92-5.92Z"></path><path class="cls-2" d="M142.55,135.71l-7.96-.27c-3.26-.11-6.01,2.46-6.12,5.72l-.04,1.12c-.99-1.7-2.81-2.88-4.92-2.95l-6.17-.21c-2.73-.09-5.1,1.7-5.86,4.19-.75-2.31-2.88-4.03-5.44-4.11l-6.17-.21c-3.26-.11-6.01,2.46-6.12,5.72l-.73,21.78c-.11,3.26,2.46,6.01,5.72,6.12l6.17.21c2.41.08,4.54-1.31,5.53-3.35.26,2.93,2.69,5.3,5.7,5.4l6.17.21c3.26.11,6.01-2.46,6.12-5.72l.04-1.06c.99,1.7,2.81,2.88,4.92,2.95l7.96.27c3.26.11,6.01-2.46,6.12-5.72l.81-23.98c.11-3.26-2.46-6.01-5.72-6.12Z"></path><rect class="cls-1" x="15.21" y="96.76" width="67.51" height="53.79" transform="translate(-79.52 158.04) rotate(-83.38)"></rect><rect class="cls-5" x="-.76" y="89.24" width="74.28" height="64.62" transform="translate(-88.56 143.67) rotate(-83.38)"></rect><rect class="cls-5" x="168.52" y="81.26" width="71.38" height="56.87" transform="translate(173.04 339.4) rotate(-110.51)"></rect><rect class="cls-3" x="178.98" y="67.81" width="78.53" height="71.82" transform="translate(197.58 344.47) rotate(-110.51)"></rect></g></g></g></svg> 