<?xml version="1.0" encoding="UTF-8"?> <svg xmlns="http://www.w3.org/2000/svg" id="Calque_2" data-name="Calque 2" viewBox="0 0 254.46 230"><defs><style> .cls-1 { fill: #012828; } .cls-2 { fill: #fff; } .cls-3 { fill: #00545c; } .cls-4 { fill: #7bc9d6; } .cls-5 { fill: #2b4449; } </style></defs><g id="individualAction"><g><ellipse class="cls-4" cx="117.06" cy="115" rx="117.06" ry="115"></ellipse><g><path class="cls-5" d="M76.03,229.92l-9.21-1.5c-1.9-.31-3.02-1.46-2.49-2.57l38.19-79.35c.53-1.1,2.52-1.75,4.42-1.45l9.21,1.5c1.9.31,3.02,1.46,2.49,2.57l-38.19,79.35c-.53,1.1-2.52,1.75-4.42,1.45Z"></path><path class="cls-5" d="M159.59,229.92l9.21-1.5c1.9-.31,3.02-1.46,2.49-2.57l-38.19-79.35c-.53-1.1-2.52-1.75-4.42-1.45l-9.21,1.5c-1.9.31-3.02,1.46-2.49,2.57l38.19,79.35c.53,1.1,2.52,1.75,4.42,1.45Z"></path><ellipse class="cls-3" cx="116.39" cy="112.95" rx="78.98" ry="77.59"></ellipse><ellipse class="cls-2" cx="116.39" cy="112.95" rx="52.12" ry="51.21"></ellipse><ellipse class="cls-4" cx="116.39" cy="112.95" rx="28.99" ry="28.48"></ellipse><ellipse class="cls-3" cx="116.39" cy="112.95" rx="15.88" ry="15.6"></ellipse><polygon class="cls-1" points="207.81 70.99 209.83 74.98 254.46 53.15 239.98 52.42 248.12 40.62 203.49 62.46 205.52 66.46 133.5 101.72 131.47 97.72 115.63 113.3 137.83 110.25 135.79 106.25 207.81 70.99"></polygon></g></g></g></svg> 