<?xml version="1.0" encoding="UTF-8"?> <svg xmlns="http://www.w3.org/2000/svg" id="Calque_2" data-name="Calque 2" viewBox="0 0 236.02 230.07"><defs><style> .cls-1 { fill: #012828; } .cls-2 { fill: #fff; } .cls-3 { fill: #00545c; } .cls-4 { fill: #76c1a3; } .cls-5 { fill: #fef8c7; } </style></defs><g id="services"><g><circle class="cls-5" cx="115.03" cy="115.03" r="115.03" transform="translate(-47.65 115.03) rotate(-45)"></circle><g><path class="cls-1" d="M61.02,70.99l-11.22,5.59-16.95-14.9-19.69,39.73,3.6.95,16.55-33.52,14.72,13.66,14.99-7.7c-.95-1.18-1.61-2.48-2.01-3.8Z"></path><path class="cls-1" d="M231.51,60.07l-40.3,38.49-15.12-13.48-26.38,28.46-1.8-4.7c-1.42.41-2.96.67-4.57.76l5.71,14.59,27.5-32.57,13.81,14.04,45.67-44.17-4.52-1.42Z"></path><rect class="cls-4" x="106.58" y="111.07" width="24.81" height="61.44" rx="11.42" ry="11.42" transform="translate(-9.55 8.6) rotate(-3.98)"></rect><path class="cls-3" d="M148.18,157.16c-1.37-1.53-3.46-2.08-5.45-1.65,1.08-2.09.9-4.62-.67-6.37-1.22-1.36-3.02-1.95-4.81-1.76.77-1.96.48-4.2-.94-5.78-.29-.32-.61-.59-.96-.83l1.26-1.07c2.06-1.75,2.32-4.86.57-6.92l-3.54-4.18c-1.75-2.06-4.86-2.32-6.92-.57l-11.28,9.57c-2.61-2.04-6.09-2.26-8.27-.35l-16.07,14.09c-1.85,1.62-2.27,4.34-1.3,6.84l-6.42,5.59c-1.63,1.42-1.87,3.82-.53,5.33l23.61,26.58c1.34,1.51,3.77,1.58,5.41.16l5.94-5.18c.9.21,1.87.1,3.06-1.05l26.57-24.24c2.5-2.2,2.85-5.9.77-8.21Z"></path><rect class="cls-1" x="61.25" y="170.04" width="48.57" height="38.7" transform="translate(.82 379.14) rotate(-131.64)"></rect><rect class="cls-4" x="51.98" y="172.04" width="53.43" height="45.62" transform="translate(-14.64 383.12) rotate(-131.64)"></rect><circle class="cls-2" cx="114.82" cy="63.53" r="48.58"></circle><path class="cls-1" d="M145.84,104.17l-17.82-83.01-33.15,67.46-16.76-33.87-12.69,9.81c.12,2.48.44,4.94.81,7.4l9.38-7.48,19.86,43.4,30.59-70.56,15.76,71.95c.92-2.01,2.42-3.59,4.03-5.1Z"></path><path class="cls-4" d="M114.9,119.99c-1.19,0-2.39-.04-3.59-.11-15.05-.94-28.84-7.68-38.82-18.99-9.98-11.31-14.96-25.82-14.02-40.87.94-15.05,7.68-28.84,18.99-38.82h0c11.31-9.98,25.82-14.96,40.87-14.02,15.05.94,28.84,7.68,38.82,18.99,9.98,11.31,14.96,25.82,14.02,40.87-.94,15.05-7.68,28.84-18.99,38.82-10.4,9.18-23.53,14.13-37.28,14.13ZM83.63,28.19c-19.49,17.2-21.35,47.05-4.15,66.53,8.33,9.44,19.84,15.07,32.41,15.85,1,.06,2,.09,3,.09,11.49,0,22.44-4.13,31.13-11.8,9.44-8.33,15.07-19.84,15.85-32.41.78-12.57-3.37-24.69-11.7-34.13-17.2-19.49-47.05-21.35-66.53-4.15h0Z"></path></g></g></g></svg> 