<?xml version="1.0" encoding="UTF-8"?> <svg xmlns="http://www.w3.org/2000/svg" id="Calque_2" data-name="Calque 2" viewBox="0 0 229.96 229.96"><defs><style> .cls-1 { fill: #012828; } .cls-2 { fill: #fff; } .cls-3 { fill: #00545c; } .cls-4 { fill: #76c1a3; } .cls-5 { fill: #fef8c7; } </style></defs><g id="services"><g><path class="cls-5" d="M229.96,114.98c0,63.5-51.48,114.98-114.98,114.98-63.5,0-114.98-51.48-114.98-114.98C0,51.48,51.48,0,114.98,0c63.5,0,114.98,51.48,114.98,114.98Z"></path><g><polygon class="cls-4" points="106.2 125.26 104.76 142.24 117.52 137.87 119.06 120.85 106.2 125.26"></polygon><rect class="cls-4" x="80.11" y="121.22" width="24.38" height="51.77" rx="3.09" ry="3.09" transform="translate(-42.7 37.87) rotate(-18.92)"></rect><path class="cls-4" d="M46.72,89.97h58.7c1.71,0,3.09,1.39,3.09,3.09v39.6c0,1.71-1.39,3.09-3.09,3.09h-58.7c-1.71,0-3.09-1.39-3.09-3.09v-39.6c0-1.71,1.39-3.09,3.09-3.09Z" transform="translate(-32.48 30.76) rotate(-18.92)"></path><rect class="cls-1" x="56.78" y="95.92" width="3.89" height="45.78" transform="translate(-35.34 25.45) rotate(-18.92)"></rect><path class="cls-4" d="M51.2,139.25h0c3.17-1.09,4.88-4.57,3.79-7.74l-7-20.43c-1.09-3.17-4.57-4.88-7.74-3.79h0c-3.17,1.09-4.88,4.57-3.79,7.74l7,20.43c1.09,3.17,4.57,4.88,7.74,3.79Z"></path><polygon class="cls-3" points="93.09 82.84 168.03 14.28 205.2 114.23 108.34 126 93.09 82.84"></polygon><g><path class="cls-1" d="M173.16,9.82c-9.64,3.3-13.23,19.7-10.01,40.05,5.91-1.92,14.74,5.87,20.03,17.84,5.46,12.35,5.1,24.48-.8,27.09-.59.26-1.21.41-1.85.47,9.19,13.78,19.95,21.43,28.28,18.57,12.62-4.33,14.88-31.12,5.03-59.85-9.84-28.73-28.06-48.51-40.68-44.18Z"></path><path class="cls-2" d="M182.38,94.8c5.91-2.61,6.27-14.74.8-27.09-5.29-11.97-14.12-19.76-20.03-17.84,1,6.31,2.65,13,4.98,19.8,3.35,9.77,7.66,18.5,12.4,25.61.64-.06,1.26-.21,1.85-.47Z"></path></g></g><g><path class="cls-3" d="M84.96,188.44l6.55-2.77c.71.44,1.58.61,2.92-.04l29.58-13.31c2.76-1.18,4.1-4.25,2.97-6.82-.75-1.69-2.38-2.75-4.21-2.95,1.51-1.48,2.07-3.71,1.21-5.65-.67-1.51-2.04-2.52-3.63-2.86,1.21-1.46,1.59-3.46.82-5.22-.48-1.09-1.33-1.92-2.36-2.42l11.23-4.8c2.71-1.16,3.92-4.39,2.69-7.18-1.23-2.79-4.45-4.13-7.16-2.97l-20.71,8.86c-1.54-3-4.8-4.52-7.44-3.39l-17.73,7.56c-2.04.87-3.16,3.08-3.04,5.49l-7.07,2.99c-1.8.76-2.67,2.75-1.95,4.42l12.76,29.4c.73,1.67,2.79,2.42,4.59,1.66Z"></path><rect class="cls-1" x="42.33" y="158.07" width="43.8" height="34.9" transform="translate(-71.15 304.37) rotate(-113.48)"></rect><rect class="cls-4" x="23.53" y="151.66" width="48.19" height="61.24" transform="translate(-100.59 298.6) rotate(-113.48)"></rect></g></g></g></svg> 