<?xml version="1.0" encoding="UTF-8"?> <svg xmlns="http://www.w3.org/2000/svg" id="Calque_2" data-name="Calque 2" viewBox="0 0 255.76 229.98"><defs><style> .cls-1 { fill: #012828; } .cls-2 { opacity: .3; } .cls-3 { fill: #fff; } .cls-4 { fill: #00545c; } .cls-5 { fill: #76c1a3; } .cls-6 { fill: #cc9325; } </style></defs><g id="individualAction"><g><circle class="cls-6" cx="114.99" cy="114.99" r="114.99" transform="translate(-47.63 114.99) rotate(-45)"></circle><circle class="cls-4" cx="114.99" cy="114.99" r="114.99" transform="translate(-47.63 114.99) rotate(-45)"></circle><g><path class="cls-3" d="M21.64,116.31s35.57-50.02,85.95-51.83c50.39-1.8,91.24,51.83,91.24,51.83,0,0-46.19,48.72-88.6,48.72S21.64,116.31,21.64,116.31Z"></path><circle class="cls-1" cx="107.39" cy="114.76" r="39.36"></circle><circle class="cls-3" cx="86.09" cy="123.52" r="8.86"></circle></g><g><g class="cls-2"><circle class="cls-3" cx="177.35" cy="116.31" r="51.81" transform="translate(-34.69 111.82) rotate(-32.04)"></circle></g><rect class="cls-5" x="216.02" y="148.31" width="26.46" height="65.53" rx="11.16" ry="11.16" transform="translate(-62.81 187.65) rotate(-39.59)"></rect><path class="cls-5" d="M177.15,176.31c-4.55,0-9.13-.52-13.68-1.56-15.74-3.62-29.13-13.16-37.71-26.85-8.57-13.69-11.3-29.9-7.68-45.65h0c3.62-15.74,13.16-29.13,26.85-37.71,13.69-8.57,29.9-11.3,45.65-7.68,15.74,3.62,29.13,13.16,37.71,26.85,8.57,13.69,11.3,29.9,7.68,45.65-3.62,15.74-13.16,29.13-26.85,37.71-9.74,6.1-20.76,9.24-31.97,9.24ZM176.94,65.78c-9.27,0-18.38,2.6-26.43,7.64-11.32,7.09-19.2,18.16-22.2,31.17-2.99,13.02-.74,26.42,6.35,37.74,7.09,11.32,18.16,19.2,31.17,22.2,13.02,3,26.42.74,37.74-6.35,11.32-7.09,19.2-18.16,22.2-31.17,2.99-13.02.74-26.42-6.35-37.74-7.09-11.32-18.16-19.2-31.17-22.2-3.76-.86-7.54-1.29-11.31-1.29Z"></path></g></g></g></svg> 