<?xml version="1.0" encoding="UTF-8"?> <svg xmlns="http://www.w3.org/2000/svg" id="Calque_2" data-name="Calque 2" viewBox="0 0 244.82 229.96"><defs><style> .cls-1 { fill: #012828; } .cls-2 { fill: #fff; } .cls-3 { fill: #00545c; } .cls-4 { fill: #76c1a3; } </style></defs><g id="services"><g><circle class="cls-4" cx="129.84" cy="114.98" r="114.98"></circle><g><path class="cls-1" d="M47.11,95.62c4.29,13.02,16.24,13,20.52,0,1.41-.74,2.86-2.95,3.1-4.76.25-1.9.1-4.43-1.82-4.43-.42-6.11-3.77-11.27-11.38-11.27s-11.24,4.48-11.7,11.27c-1.92,0-2.07,2.53-1.82,4.43.24,1.82,1.69,4.02,3.1,4.76Z"></path><path class="cls-1" d="M83.71,156.79v-37.08c0-6.51-4.74-12.14-11.38-13.52l-4.85-1.01-10.1,20.14-10.1-20.14-4.85,1.01c-6.64,1.39-11.38,7.01-11.38,13.52v37.08c0,4.98,4.04,9.02,9.02,9.02v55.12c0,4.98,4.04,9.02,9.02,9.02h16.57c4.98,0,9.02-4.04,9.02-9.02v-55.12c4.98,0,9.02-4.04,9.02-9.02Z"></path><path class="cls-1" d="M13.4,117.6c2.56,7.77,8.37,9.87,12.78,6.52v-4.41c0-4.68,1.88-9.03,4.94-12.37-1.03-3.87-3.82-6.81-9.04-6.81-6.21,0-9.37,3.73-9.76,9.4-1.61,0-1.73,2.11-1.52,3.7.2,1.51,1.41,3.35,2.59,3.97Z"></path><path class="cls-1" d="M35.21,170.14c-5.27-1.97-9.02-7.06-9.02-13v-22.86l-4.23,8.43-8.42-16.79-4.04.84c-5.54,1.16-9.49,5.85-9.49,11.27v30.92c0,4.16,3.37,7.52,7.52,7.52v45.96c0,4.16,3.37,7.52,7.52,7.52h13.82c3.17,0,5.87-1.97,6.98-4.74-.37-1.26-.64-2.56-.64-3.93v-51.14Z"></path><path class="cls-1" d="M88.64,124.12c4.42,3.35,10.23,1.25,12.78-6.52,1.18-.62,2.39-2.46,2.59-3.97.21-1.59.09-3.7-1.52-3.7-.39-5.67-3.55-9.4-9.76-9.4-5.22,0-8.01,2.93-9.04,6.81,3.06,3.34,4.94,7.68,4.94,12.37v4.41Z"></path><path class="cls-1" d="M105.34,126.76l-4.04-.84-8.42,16.79-4.23-8.43v22.86c0,5.94-3.76,11.03-9.02,13v51.14c0,1.37-.26,2.68-.64,3.93,1.11,2.78,3.81,4.74,6.98,4.74h13.82c4.16,0,7.52-3.37,7.52-7.52v-45.96c4.16,0,7.52-3.37,7.52-7.52v-30.92c0-5.43-3.95-10.12-9.49-11.27Z"></path></g><g><path class="cls-3" d="M207.51,95.62c4.29,13.02,16.24,13,20.52,0,1.41-.74,2.86-2.95,3.1-4.76.25-1.9.1-4.43-1.82-4.43-.42-6.11-3.77-11.27-11.38-11.27s-11.24,4.48-11.7,11.27c-1.92,0-2.07,2.53-1.82,4.43.24,1.82,1.69,4.02,3.1,4.76Z"></path><path class="cls-3" d="M244.11,156.79v-37.08c0-6.51-4.74-12.14-11.38-13.52l-4.85-1.01-10.1,20.14-10.1-20.14-4.85,1.01c-6.64,1.39-11.38,7.01-11.38,13.52v37.08c0,4.98,4.04,9.02,9.02,9.02v55.12c0,4.98,4.04,9.02,9.02,9.02h16.57c4.98,0,9.02-4.04,9.02-9.02v-55.12c4.98,0,9.02-4.04,9.02-9.02Z"></path><path class="cls-3" d="M173.8,117.6c2.56,7.77,8.37,9.87,12.78,6.52v-4.41c0-4.68,1.88-9.03,4.94-12.37-1.03-3.87-3.82-6.81-9.04-6.81-6.21,0-9.37,3.73-9.76,9.4-1.61,0-1.73,2.11-1.52,3.7.2,1.51,1.41,3.35,2.59,3.97Z"></path><path class="cls-3" d="M195.61,170.14c-5.27-1.97-9.02-7.06-9.02-13v-22.86l-4.23,8.43-8.42-16.79-4.04.84c-5.54,1.16-9.49,5.85-9.49,11.27v30.92c0,4.16,3.37,7.52,7.52,7.52v45.96c0,4.16,3.37,7.52,7.52,7.52h13.82c3.17,0,5.87-1.97,6.98-4.74-.37-1.26-.64-2.56-.64-3.93v-51.14Z"></path></g><path class="cls-1" d="M142.16,54.94c0,16.5,15.55,29.89,34.74,29.89l13.43,6.84c.93.47,2.01.51,2.97.12.96-.4,1.7-1.19,2.03-2.17l3.94-11.83c7.56-5.47,12.37-13.67,12.37-22.84,0-16.51-15.55-29.89-34.73-29.89-19.18,0-34.74,13.38-34.74,29.89ZM170.89,69.45c0-6.24,9.2-6.43,9.32,0,0,6.3-9.32,6.34-9.32,0ZM177.85,61.85h-4.61l-1.92-26.63h8.45l-1.92,26.63Z"></path><g><path class="cls-3" d="M96.9,12.13c-19.18,0-34.73,13.38-34.73,29.89,0,9.17,4.81,17.37,12.37,22.84l3.94,11.83c.33.99,1.07,1.78,2.03,2.17.96.39,2.04.35,2.97-.12l13.43-6.84c19.18,0,34.74-13.38,34.74-29.89s-15.55-29.89-34.74-29.89ZM90.89,56.53c0-6.24,9.2-6.43,9.32,0,0,6.3-9.32,6.34-9.32,0ZM99.17,49.35h-6.92c-.14-3.61-.03-5.88,3.02-9.53,7.68-9.11-1.59-10-5.93-6.97l-1.77-5.68c6.17-3.6,18.69-3.3,18.69,5.99,0,7.93-7.08,7.14-7.08,16.19Z"></path><g><path class="cls-2" d="M90.89,56.53c0-6.24,9.2-6.43,9.32,0,0,6.3-9.32,6.34-9.32,0Z"></path><path class="cls-2" d="M99.17,49.35h-6.92c-.14-3.61-.03-5.88,3.02-9.53,7.68-9.11-1.59-10-5.93-6.97l-1.77-5.68c6.17-3.6,18.69-3.3,18.69,5.99,0,7.93-7.08,7.14-7.08,16.19Z"></path></g></g><g><path class="cls-2" d="M170.89,69.45c0-6.24,9.2-6.43,9.32,0,0,6.3-9.32,6.34-9.32,0Z"></path><polygon class="cls-2" points="177.85 61.85 173.24 61.85 171.32 35.22 179.77 35.22 177.85 61.85"></polygon></g></g></g></svg> 