<?xml version="1.0" encoding="UTF-8"?> <svg xmlns="http://www.w3.org/2000/svg" id="Calque_2" data-name="Calque 2" viewBox="0 0 255.83 230.1"><defs><style> .cls-1 { fill: #012828; } .cls-2 { fill: #fff; } .cls-3 { fill: #00545c; } .cls-4 { fill: #76c1a3; } </style></defs><g id="services"><g><circle class="cls-4" cx="114.77" cy="114.77" r="114.77" transform="translate(-47.54 114.77) rotate(-45)"></circle><g><g><path class="cls-2" d="M15.24,49.77h168.11c1.63,0,2.95,1.32,2.95,2.95v101.92c0,1.63-1.32,2.95-2.95,2.95H15.24c-1.63,0-2.95-1.32-2.95-2.95V52.72c0-1.63,1.32-2.95,2.95-2.95Z"></path><path class="cls-3" d="M183.37,161.28H15.23c-3.64,0-6.6-2.99-6.6-6.66V52.73c0-3.67,2.96-6.66,6.6-6.66h168.14c3.64,0,6.6,2.99,6.6,6.66v101.89c0,3.67-2.96,6.66-6.6,6.66ZM15.96,153.88h166.67V53.47H15.96v100.41Z"></path></g><g><path class="cls-1" d="M165.14,77.28h-54.37c-1.75,0-1.75,3.1,0,3.1h54.37c1.75,0,1.75-3.1,0-3.1Z"></path><path class="cls-1" d="M165.14,91.73h-54.37c-1.75,0-1.75,3.1,0,3.1h54.37c1.75,0,1.75-3.1,0-3.1Z"></path><path class="cls-1" d="M165.14,104.29h-54.37c-1.75,0-1.75,3.1,0,3.1h54.37c1.75,0,1.75-3.1,0-3.1Z"></path><path class="cls-1" d="M165.14,114.95h-54.37c-1.75,0-1.75,3.1,0,3.1h54.37c1.75,0,1.75-3.1,0-3.1Z"></path><path class="cls-1" d="M165.14,122.82h-54.37c-1.75,0-1.75,3.1,0,3.1h54.37c1.75,0,1.75-3.1,0-3.1Z"></path><path class="cls-1" d="M70.02,137.03c-19.83,0-36.08-16.02-36.3-35.91-.22-20.02,15.88-36.49,35.9-36.71,9.7-.08,18.86,3.57,25.79,10.35,6.93,6.78,10.81,15.86,10.92,25.56.22,20.02-15.88,36.49-35.9,36.71-.14,0-.27,0-.41,0ZM70.04,68.55c-.12,0-.25,0-.37,0-17.73.2-32,14.79-31.8,32.52.2,17.61,14.59,31.8,32.15,31.8.12,0,.24,0,.36,0,17.73-.2,32-14.78,31.8-32.52-.1-8.59-3.53-16.63-9.67-22.64-6.05-5.92-14.02-9.17-22.48-9.17Z"></path><rect class="cls-1" x="68.78" y="66.49" width="1.24" height="67.56" transform="translate(-1.11 .78) rotate(-.64)"></rect><rect class="cls-1" x="83.83" y="75.4" width="1.24" height="35.73" transform="translate(121.08 -27.1) rotate(59.09)"></rect><rect class="cls-1" x="72.4" y="91.74" width=".93" height="7.96" transform="translate(193.05 90.23) rotate(124.66)"></rect><rect class="cls-1" x="75.06" y="83.87" width=".93" height="14.6" transform="translate(193.47 80.9) rotate(124.67)"></rect><rect class="cls-1" x="77.55" y="75.85" width=".93" height="20.89" transform="translate(193.37 71.18) rotate(124.66)"></rect><rect class="cls-1" x="80.04" y="67.63" width=".93" height="27.57" transform="translate(193.27 61.49) rotate(124.66)"></rect><rect class="cls-1" x="82.64" y="60.13" width=".93" height="32.97" transform="translate(193.39 51.82) rotate(124.66)"></rect></g></g><g><path class="cls-3" d="M197.47,54.77c6.82,20.75,25.88,20.78,32.73,0,2.25-1.18,4.57-4.69,4.94-7.59.4-3.04.17-7.08-2.89-7.08-.75-10.83-6.8-17.98-18.66-17.98s-17.5,8.24-18.16,17.98c-3.06,0-3.29,4.04-2.89,7.08.37,2.9,2.69,6.41,4.94,7.59Z"></path><path class="cls-3" d="M237.69,71.61l-7.73-1.6-16.12,32.11-16.12-32.11-7.74,1.6c-10.58,2.23-18.15,11.2-18.15,21.57v59.14c0,7.96,6.44,14.41,14.39,14.41v27.6h.09v35.77h55.14v-63.37c7.95,0,14.38-6.45,14.38-14.41v-59.14c0-10.37-7.55-19.34-18.14-21.57Z"></path></g><g><path class="cls-1" d="M55.54,181.14h-24.05c-11.66,0-21.1,9.45-21.1,21.1v27.86h66.25v-27.86c0-11.65-9.45-21.1-21.1-21.1Z"></path><path class="cls-1" d="M131.99,181.14h-24.05c-11.66,0-21.1,9.45-21.1,21.1v27.86h66.25v-27.86c0-11.65-9.45-21.1-21.1-21.1Z"></path><path class="cls-1" d="M208.44,181.14h-24.05c-11.66,0-21.1,9.45-21.1,21.1v27.86h66.25v-27.86c0-11.65-9.45-21.1-21.1-21.1Z"></path></g></g></g></svg> 