<?xml version="1.0" encoding="UTF-8"?> <svg xmlns="http://www.w3.org/2000/svg" id="Calque_2" data-name="Calque 2" viewBox="0 0 230 230"><defs><style> .cls-1 { fill: #fff; } .cls-2 { fill: #00545c; } .cls-3 { fill: #7bc9d6; } .cls-4 { fill: #91a94e; } .cls-5 { fill: none; } .cls-6 { fill: #abd5cb; } </style></defs><g id="individualAction"><g><circle class="cls-3" cx="115" cy="115" r="115" transform="translate(-47.63 115) rotate(-45)"></circle><g><path class="cls-5" d="M35.85,188.55c0-.65.03-1.31.06-1.96.02-.68.05-1.66.14-2.88,0,0,0-.01,0-.02,0,0,0-.01,0-.02.08-1.11.2-2.43.39-3.91.02-.16.04-.32.06-.48.13-.99.29-2.05.48-3.16.07-.4.14-.81.22-1.21.17-.94.37-1.92.6-2.93.05-.24.11-.48.16-.72,3.75-16.27,14.27-40.65,43.8-54.42,0,0,1.73-1.11,4.41-1.74,11.08-4.48,23.33-6.56,36.05-5.61,12.18.91,23.52,4.5,33.5,10.14,22.43,3.62,46.83,46.06,48.06,68.48,16.38-19.87,26.21-45.33,26.21-73.09C230,51.49,178.51,0,115,0S0,51.49,0,115C0,147.93,13.85,177.63,36.03,198.59c-.33-3.22-.42-6.59-.18-10.05Z"></path><path class="cls-6" d="M37.8,171.96c.05-.24.11-.47.16-.72-.06.24-.11.48-.16.72Z"></path><path class="cls-6" d="M35.91,186.58c-.03.66-.05,1.31-.06,1.96.02-.28.03-.55.05-.82,0,0,0-.4,0-1.14Z"></path><path class="cls-2" d="M149.21,190.88c-9.68-10.65,4.55-19.17,2.2-29.42-2.35-10.25-17.27-11.42-18.53-21.1-1.26-9.68,7.11-15.57,7.11-15.57,4.88-4.63,10.25-6.06,15.74-5.17-9.98-5.63-21.32-9.23-33.5-10.14-12.72-.95-24.97,1.13-36.05,5.61,4.21-1,10.78-.83,16.7,6.65,9.7,12.25-15.9,13.97-18.44,19.55-2.54,5.57,14.66,15.04,5.36,29.81-9.3,14.77-18.27,6.52-22.02,21.4-1.73,6.86-1.08,17.74-2.33,26.31,5.83,2.79,11.92,5.1,18.24,6.88,5.33-4.97,10.7-9.12,14.6-11.49,4.81-2.92,9.98-4.02,15.05-2.79,5.46,1.33,10.49,4.98,16.01,5.87,5,.81,9.92-1.3,14.84-2.62,4.63-1.24,9.42-1.85,14.08-1.46,3.79.32,7.57,1.31,11.07,3.17,5.34-2.87,10.43-6.15,15.22-9.8-13.31-.74-29.53-9.28-35.36-15.69Z"></path><path class="cls-6" d="M36.99,176.1c.07-.4.14-.8.22-1.21-.07.4-.15.81-.22,1.21Z"></path><path class="cls-6" d="M36.45,179.74c.02-.16.04-.32.06-.48-.02.16-.04.32-.06.48Z"></path><path class="cls-6" d="M36.05,183.68s0,.01,0,.02c0-.01,0-.03,0-.04,0,0,0,.01,0,.02Z"></path><path class="cls-4" d="M155.73,119.62c-5.49-.88-10.86.54-15.74,5.17,0,0-8.37,5.89-7.11,15.57,1.26,9.68,16.18,10.85,18.53,21.1,2.35,10.25-11.88,18.77-2.2,29.42,5.83,6.41,22.06,14.95,35.36,15.69,7.1-5.4,13.55-11.6,19.22-18.48-1.23-22.41-25.63-64.86-48.06-68.48Z"></path><path class="cls-4" d="M89.8,171.1c9.3-14.77-7.9-24.24-5.36-29.81,2.54-5.57,28.14-7.3,18.44-19.55-5.93-7.48-12.49-7.65-16.7-6.65-2.68.64-4.41,1.74-4.41,1.74-29.53,13.77-40.05,38.15-43.8,54.42-.06.24-.11.48-.16.72-.22,1.01-.42,1.99-.6,2.93-.08.41-.15.81-.22,1.21-.19,1.12-.35,2.18-.48,3.16-.02.16-.04.32-.06.48-.19,1.49-.31,2.8-.39,3.91,0,.01,0,.03,0,.04-.09,1.23-.13,2.2-.14,2.88-.02.74,0,1.14,0,1.14-.02.28-.03.55-.05.82-.24,3.46-.15,6.83.18,10.05,8.65,8.17,18.56,15.02,29.42,20.21,1.25-8.57.6-19.44,2.33-26.31,3.75-14.88,12.72-6.63,22.02-21.4Z"></path><path class="cls-4" d="M144.19,214.66c-4.92,1.32-9.84,3.43-14.84,2.62-5.52-.9-10.54-4.55-16.01-5.87-5.07-1.23-10.25-.12-15.05,2.79-3.9,2.37-9.27,6.52-14.6,11.49,9.95,2.81,20.45,4.31,31.31,4.31,19.66,0,38.16-4.94,54.35-13.63-3.5-1.86-7.28-2.85-11.07-3.17-4.67-.39-9.45.22-14.08,1.46Z"></path></g><circle class="cls-5" cx="115" cy="115" r="115" transform="translate(-47.63 115) rotate(-45)"></circle><circle class="cls-5" cx="115" cy="115" r="115" transform="translate(-47.63 115) rotate(-45)"></circle><g><path class="cls-1" d="M117.72,43.99c.28.89,0,5.01,0,6.35,0,1.17,3.16,2.61,4.2,1.37l22.81-17.07c1.22-1.33.99-3.14-.36-4.24-7.54-4.38-14.86-12.39-22.24-16.58-5.06-2.87-4.63,4.29-4.4,7.4-17.87.49-34.66,12.54-33.17,31.93.07.87,1.07,6.24,1.44,6.5,1.34.94,3.87-3.29,4.73-4.21,5.31-5.62,12.44-10.32,20.22-11.55,1.13-.18,6.47-.94,6.79.08Z"></path><path class="cls-1" d="M112.43,64.48c-.26-.85,0-4.72,0-6,0-.9-2.71-3.11-3.78-2.02l-22.86,17.03c-1.68,1.31-1.65,3.3,0,4.58,7.35,4.78,14.25,11.54,21.59,16.17,5.62,3.55,5.24-3.08,5.05-6.99,13.71-.18,29.29-8.63,32.37-22.87.96-4.44,1.08-9.37-.13-13.78-.29-1.03-.14-2.05-1.33-1.83-1.06.2-4.89,5.32-6.19,6.53-4.81,4.5-11.37,8.2-17.93,9.25-1.1.18-6.45,1-6.78-.08Z"></path></g></g></g></svg> 