<?xml version="1.0" encoding="UTF-8"?>
<svg id="Calque_2" data-name="Calque 2" xmlns="http://www.w3.org/2000/svg" viewBox="0 0 141.8 116.32">
  <defs>
    <style>
      .cls-1 {
        fill: #7bc9d6;
      }
    </style>
  </defs>
  <g id="Typographiques">
    <g>
      <path class="cls-1" d="M128.21,101.42c-4.39.92-15.31,1.09-19.1-.38-1.8-.7-2.07-1.49-1.21-3.11,1.15-2.15,2.47-2.17,4.87-1.82,6.68.96,11.37,2.75,18.81.17,8.23-2.86,5.46-11.06,1.53-14.83-1.47-1.41-5.06-3.39-5.16-5.3-.04-.69,1.1-1.76,1.71-2.3,1.6-1.43,5.61-4.09,7.87-4.34.82-.09,1.42.82,1.75,1.33,2.79,4.34,3.25,14.93,1.51,20.09-1.36,4.03-4.44,7.72-9.45,9.59-.78.29-2.3.74-3.11.91Z"/>
      <path class="cls-1" d="M103.03,44.48c-10.87,1.85-18.04,5.2-35.96,23.84-17.92,18.64-29.41,25.06-33.6,26.63-4.19,1.57-7.02,3.46-5.29,5.99s12.61,19.77,44.45,14.33c0,0,14.18-1.19,36.68-31.56,8.27-11.85,15.52-14.86,25.79-20.06,4.56-1.75-19.12-21.38-32.07-19.17Z"/>
      <path class="cls-1" d="M40.45,24.29c-2.74,0-4.96,2.12-4.96,4.73v45.27c0,2.61,2.22,4.73,4.96,4.73s4.96-2.12,4.96-4.73V29.01c0-2.61-2.22-4.73-4.96-4.73Z"/>
      <path class="cls-1" d="M58.19,7.55c-2.74,0-4.96,2.12-4.96,4.73v47.84c0,2.61,2.22,4.73,4.96,4.73s4.96-2.12,4.96-4.73V12.28c0-2.61-2.22-4.73-4.96-4.73Z"/>
      <path class="cls-1" d="M75.93,0c-2.74,0-4.96,2.12-4.96,4.73v37.79c0,2.61,2.22,4.73,4.96,4.73s4.96-2.12,4.96-4.73V4.73c0-2.61-2.22-4.73-4.96-4.73Z"/>
      <path class="cls-1" d="M4.96,51.16c-2.74,0-4.96,1.98-4.96,4.42v14.08c0,2.44,2.22,4.42,4.96,4.42s4.96-1.98,4.96-4.42v-14.08c0-2.44-2.22-4.42-4.96-4.42Z"/>
      <path class="cls-1" d="M22.7,40.23c-2.74,0-4.96,2.49-4.96,5.55v34.39c0,3.07,2.22,5.55,4.96,5.55s4.96-2.49,4.96-5.55v-34.39c0-3.07-2.22-5.55-4.96-5.55Z"/>
      <path class="cls-1" d="M93.67,6.89c-2.74,0-4.96,2.12-4.96,4.73v18.38c0,2.61,2.22,4.73,4.96,4.73s4.96-2.12,4.96-4.73V11.62c0-2.61-2.22-4.73-4.96-4.73Z"/>
    </g>
  </g>
</svg>