<?xml version="1.0" encoding="UTF-8"?>
<svg id="Calque_2" data-name="Calque 2" xmlns="http://www.w3.org/2000/svg" viewBox="0 0 141.73 124.28">
  <defs>
    <style>
      .cls-1 {
        fill: #fff;
      }
    </style>
  </defs>
  <g id="Typographiques">
    <g>
      <path class="cls-1" d="M47.97,84.42c9.27-5.69,29.45-10.13,40.9-12,3.42-.56,4.36-.92,7.7-1.6-9.36,1.02-14.84,1.63-26.76,3.5-9.02,1.82-18.24,3.79-25.82,7.18-10.54,4.72.97,8.66,6.19,10.65-2.77-2.39-7.3-4.6-2.21-7.72Z"/>
      <path class="cls-1" d="M134.93,104.31c-.09.3-.16.56-.21.79-.01.04-.03.13-.06.25-.45,1.79-.72,3.31-.86,4.53,4.16.86,6.99,2.54,6.99,4.47,0,2.8-5.93,5.07-13.25,5.07s-13.25-2.27-13.25-5.07c0-1.79,2.43-3.36,6.09-4.26-.09-1.29-.3-2.96-.75-4.98-.03-.12-.04-.2-.05-.25-.03-.17-.08-.37-.13-.58-16.62-.34-37.16-1.41-46.95-2.34h0c-12.14-1.34-39.31-2.76-45.77-12.05-2.81-4.04-.69-6.11,2.18-7.94,14.94-9.52,37.96-11.6,54.41-17.74,2.43-.91,8.73-3.26,10.22-5.87,3.29-5.75-8.28-11.1-10.76-12.15-2.46-1.04-4.96-1.91-7.49-2.66,4.65-2.54,8.51-4.01,13.61-5.95,5.82-2.22,12.87-4.9,23.63-10.02,8.79-4.18,11.56-8.61,8.7-13.12-2.56-4.04-9.33-7.44-15.51-9.57-.36-1.82-2.64-3.68-5.75-4.48-3.75-.97-7.28-.03-7.88,2.1-.6,2.13,1.97,4.63,5.72,5.6,3.21.83,6.25.26,7.43-1.26,4.66,1.85,9.45,4.52,11.27,7.53,2.31,3.83-.33,7.64-8.21,11.3-2.09.97-4.04,1.85-5.87,2.66,0,0,0,0,0,0-5.87,2.66-16.15,7.15-32.64,13.65-2.57-.78-6.95-2.22-13.64-4.68h0c-1.66-.64-3.39-1.28-5.27-1.97-5.8-2.13-12.82-4.72-23.62-9.65-8-3.66-10.77-7.47-8.6-11.3,1.52-2.67,5.38-5.07,9.43-6.87,1.46.99,4.02,1.28,6.7.59,3.75-.97,6.32-3.47,5.72-5.6-.6-2.13-4.12-3.07-7.88-2.1-3.59.92-6.08,3.26-5.77,5.32-5.41,2.14-10.79,5.19-12.91,8.73-2.7,4.5.23,8.93,9.16,13.12,10.94,5.12,18.08,7.81,23.98,10.02,3.33,1.25,6.13,2.31,8.97,3.58h0s11.83,4.3,11.83,4.3c3.9,1.5,8.33,3.41,11.08,5.25,1.18,2.64-3.53,4.18-4.69,4.58-17.01,5.91-59.36,7.95-71.02,25.08-9.49,13.95,3.89,26.05,12.38,30.72,4.67,2.57,9.44,4.23,14.27,5.3,0,0-.01,0-.01,0,15.16,4.09,15.97,4.9,23.18,7.9h82.08c3.62,0,6.56-2.94,6.56-6.56v-13.8c-1.63.2-3.97.32-6.8.39Z"/>
      <path class="cls-1" d="M138.29,90.57c1.91-2.23,3.13-5.06,3.36-8.17.01-.11.01-.22.02-.33,0-.17.03-.33.03-.5,0-.02,0-.04,0-.06.03-1.22-.42-3.6-.43-3.6,0,0,0,0,0,0-1.51-6.08-6.95-10.65-13.51-10.75h0c-.08,0-.16,0-.24,0-6.46,0-11.93,4.35-13.62,10.31.03-.15-.54,2.31-.55,3.58,0,.02,0,.04,0,.06,0,.17.01.33.02.5,0,.11,0,.22.01.33.13,3.12,1.25,5.99,3.09,8.28,1.54,2.45,3.37,4.84,4.85,7.51,1.49,2.93,2.11,4.78,2.41,6.31.06.33.9,3.77.95,7.46-.03,1.9,1.16,2.85,2.35,2.85s2.34-.92,2.37-2.78c.17-3.68,1.12-7.1,1.19-7.43.35-1.52,1.03-3.34,2.61-6.22,1.57-2.62,3.48-4.95,5.09-7.35ZM127.12,88.89s-.09,0-.13,0c-4.35-.07-7.82-3.65-7.74-8,.07-4.3,3.58-7.75,7.87-7.75.04,0,.09,0,.13,0,4.35.07,7.82,3.65,7.74,8-.07,4.3-3.58,7.75-7.87,7.75Z"/>
    </g>
  </g>
</svg>