<?xml version="1.0" encoding="UTF-8"?>
<svg id="Calque_2" data-name="Calque 2" xmlns="http://www.w3.org/2000/svg" xmlns:xlink="http://www.w3.org/1999/xlink" viewBox="0 0 141.73 141.52">
  <defs>
    <style>
      .cls-1 {
        fill: url(#Dégradé_sans_nom_11);
      }

      .cls-2 {
        fill: url(#Dégradé_sans_nom_11-4);
      }

      .cls-3 {
        fill: url(#Dégradé_sans_nom_11-2);
      }

      .cls-4 {
        fill: url(#Dégradé_sans_nom_11-3);
      }

      .cls-5 {
        fill: url(#Dégradé_sans_nom_11-7);
      }

      .cls-6 {
        fill: url(#Dégradé_sans_nom_11-5);
      }

      .cls-7 {
        fill: url(#Dégradé_sans_nom_11-6);
      }
    </style>
    <linearGradient id="Dégradé_sans_nom_11" data-name="Dégradé sans nom 11" x1="63.51" y1="140.85" x2="63.51" y2="3.98" gradientUnits="userSpaceOnUse">
      <stop offset=".05" stop-color="#4c878d"/>
      <stop offset=".43" stop-color="#00545c"/>
      <stop offset=".99" stop-color="#00545c"/>
    </linearGradient>
    <linearGradient id="Dégradé_sans_nom_11-2" data-name="Dégradé sans nom 11" x1="54.92" y1="140.85" x2="54.92" y2="3.98" xlink:href="#Dégradé_sans_nom_11"/>
    <linearGradient id="Dégradé_sans_nom_11-3" data-name="Dégradé sans nom 11" x1="63.41" y1="140.85" x2="63.41" y2="3.98" xlink:href="#Dégradé_sans_nom_11"/>
    <linearGradient id="Dégradé_sans_nom_11-4" data-name="Dégradé sans nom 11" x1="91.58" y1="140.85" x2="91.58" y2="3.98" xlink:href="#Dégradé_sans_nom_11"/>
    <linearGradient id="Dégradé_sans_nom_11-5" data-name="Dégradé sans nom 11" x1="4.31" y1="140.85" x2="4.31" y2="3.98" xlink:href="#Dégradé_sans_nom_11"/>
    <linearGradient id="Dégradé_sans_nom_11-6" data-name="Dégradé sans nom 11" x1="71.44" y1="140.85" x2="71.44" y2="3.98" xlink:href="#Dégradé_sans_nom_11"/>
    <linearGradient id="Dégradé_sans_nom_11-7" data-name="Dégradé sans nom 11" x1="131.79" y1="140.85" x2="131.79" y2="3.98" xlink:href="#Dégradé_sans_nom_11"/>
  </defs>
  <g id="Typographiques">
    <g>
      <path class="cls-1" d="M76.49,86.31c-.32,7.14-13.31,7.17-18.2,5.68-8.45-2.58-9.18-10.01-6.11-17.32,2.33-5.55,5.99-8.65,12.32-7.75,7.58,1.09,12.29,12.65,11.99,19.39Z"/>
      <path class="cls-3" d="M60.17,95.85c-4.34-.09-8.91-3.05-9.37-3.97s-1.8,4.8-.74,6.09,10.11-2.12,10.11-2.12Z"/>
      <ellipse class="cls-4" cx="63.41" cy="59.67" rx="4.05" ry="5.52"/>
      <path class="cls-2" d="M86.78,46.89c-3.44-2.44-5.89,1.02-2.45,3.46,7.22,5.35,11.91,13.93,11.91,23.59,0,6.68-2.25,12.83-6.01,17.77-2.4,3.06,1.03,5.81,3.21,2.77,4.41-5.68,7.04-12.81,7.04-20.54,0-11.08-5.4-20.93-13.71-27.05Z"/>
      <circle class="cls-6" cx="4.31" cy="63.37" r="4.31"/>
      <path class="cls-7" d="M136.26,133.04l-40.37-1.11c-1.46,0-1.66-1.87-.2-1.87,3.35,0,16.06-.44,18.48-3.31,0,0,0,0,0,0,16.76-12.96,27.57-33.25,27.57-56.08C141.73,33.37,112.93,2.83,76.36.02c-6.92-.54-7.58,7.92-.66,8.46,8.24.64,16.04,2.89,23.08,6.43,8.85,5.76,2.35,17.81-6.33,14.29-.54-.3-1.09-.58-1.65-.85-.05-.03-.09-.05-.14-.08v.02c-6.52-3.23-13.86-5.06-21.63-5.06-26.98,0-48.94,21.95-48.94,48.94,0,9.3,2.61,18.01,7.13,25.42,3.26,6.39,10.13,3.84,6.36-1.86-4.5-6.75-7.13-14.85-7.13-23.56,0-23.47,19.1-42.57,42.57-42.57s42.57,19.1,42.57,42.57c0,8.7-2.63,16.8-7.13,23.55-3.73,5.99,3.31,8.1,6.36,1.86,4.52-7.41,7.13-16.11,7.13-25.41,0-1.7-.09-3.38-.26-5.03h0s0,0,0,0c-.07-.66-.16-1.32-.25-1.97-.07-8.15,12.98-10.87,15.31-2.01.3,2.47.47,4.97.47,7.51,0,24.46-14.16,45.66-34.71,55.88,8.43-5.06,14.61-13.47,7.46-18.68-6.54-6.67-30.21-11.77-30.21-11.77,2.3,16.27-2.41,30.66-2.41,30.66h0c-.59,2.78-5.53,2.35-5.37,0h0c4.38-19.34,2.98-28.2,2.66-30.66,0,0-31.08,7.73-36.96,11.59-5.4,3.54-1.74,9.96,1.87,14.36-13.28-9.15-22.87-23.29-25.99-39.7-1.1-5.91-9.45-4.35-8.35,1.55,3.28,17.35,12.89,32.46,26.33,42.85h0s0,0,0,0c5.29,4.27,48.51,3.82,48.51,3.82,2.27,0,2.27,1.8,0,1.8l-57.78.68c-2.66,0-2.66,2.35,0,2.35h61.74c1.73,0,1.76,1.98.03,1.98l-32.55,1.64c-1.7,0-1.7,2.51,0,2.51h74.35c2.12,0,2.12-2.43,0-2.43l-23.72-1.47c-1.04-.09-.96-1.68,0-1.68h38.11c2.98,0,2.98-2.91,0-2.91ZM114.49,46.68c-4.02-.19-7.12-3.61-6.93-7.63.19-4.02,3.61-7.12,7.63-6.93,4.02.19,7.12,3.61,6.93,7.63-.19,4.02-3.61,7.12-7.63,6.93Z"/>
      <path class="cls-5" d="M140.41,0h-17.25C121.98,0,121.4,1.45,122.26,2.27l17.25,16.35c.84.79,2.22.2,2.22-.95V1.32C141.73.59,141.14,0,140.41,0Z"/>
    </g>
  </g>
</svg>