<?xml version="1.0" encoding="UTF-8"?>
<svg id="Calque_2" data-name="Calque 2" xmlns="http://www.w3.org/2000/svg" viewBox="0 0 141.73 147.37">
  <defs>
    <style>
      .cls-1 {
        fill: #91a94e;
      }
    </style>
  </defs>
  <g id="Typographiques">
    <path class="cls-1" d="M134.42,35.51c-8.34-14.64-21.05-27.67-37.35-33.02C67.6-7.19,32.25,12.77,29.63,38.29c-1.63,14.47,1.95,25.24,6.64,32.61,3.92,6.09,13.85,12.26,20.44,15.9,2.05,1.03,4.1,2.09,6.13,3.18.09.04.16.07.16.07h0c1.4.76,2.79,1.52,4.14,2.32,1.46.68,3.04.89,4.54.65,1.04-.17,2.05-.55,2.96-1.16,2.11-1.4,3.38-3.74,3.47-6.34,2.48,1.21,5.34,1.05,7.59-.45,2.3-1.53,3.51-4.08,3.3-6.89,2.27.48,4.66-.18,6.5-1.82,1.9-1.7,2.85-4.11,2.58-6.52,2.75,0,5.07-.95,6.57-2.7,1.55-1.8,2.12-4.36,1.6-7.21-.07-.38-.23-.69-.38-.96-.1-.18-.19-.35-.21-.49,0-.04-.02-.08-.05-.12-.75-1.21-2.84-2.92-2.93-2.99-.02-.02-.04-.03-.06-.04-4.56-2.35-9.17-4.82-13.62-7.21-6.44-3.45-13.09-7.02-19.74-10.3-.25-.13-.51-.26-.77-.39-2.37-1.21-5.32-2.72-7.76.11-1.06,1.23-1.76,2.87-2.43,4.47-1.38,3.27-2.69,6.34-6.85,6.7-.76.07-3.59-.44-3.89-.88.43-.91.86-1.84,1.3-2.77,1.79-3.85,3.65-7.83,5.24-10.39,1.24-1.94,7.79-5.44,10.31-6.51.89-.38,1.77-.62,2.63-.76h0c.88-.18,2-.27,3.31-.27l7.04.78,3.19.76c2.7.72,5.55,1.72,8.43,3.04,2.48.94,4.82,2.26,6.94,3.88,0,0,0,0,.01,0,.93.63,1.52,1.13,1.85,1.54.36.32.71.66,1.05,1,8.37,8.29,13.91,20.21,12.38,32.09-1.06,8.94-5.88,17.01-11.83,23.61-17.12,19.44-37.89,21.89-60.15,9.46-7.68-4.5-14.09-11.06-19.12-18.41-1.97-2.89-3.7-5.96-5.16-9.15-3.37-8.68-4.66-14.35-4.4-20.58,0,0,0,0,0-.02,0,0,0-.02,0-.02.05-1.12.15-2.26.3-3.45.4-2.35,1.15-4.76,1.89-8.3.78-2.16,1.51-4.07,1.83-5.16h0c.23-.65.38-1.33.42-2.05.17-9.71-13.65-10.5-14.6-.84-.23,3.95-.44,7.82-.38,11.52,0,3.44.28,6.91.92,10.28,2.48,12.98,8.76,25.07,16.98,35.28,8.53,10.55,18.96,17.66,32.05,21.47,24.71,7.45,44.95-4.4,58.54-24.85,5.32-8.25,8.19-18.35,6.62-28.16-1.19-8.18-4.96-15.69-10.11-22.01-1.82-2.29-3.91-4.4-6.22-6.25h.02s-5.44-5.49-16.42-8.05c-9.28-2.16-12.19-2.6-17.42-1.01-1.04.27-3.76,1.2-5.66,2.27-1.63.87-3.11,1.84-4.39,2.73-1.95,1.36-4.56,4.68-6.35,8.07-.2.38-.49.91-.83,1.53-2.2,4.04-4.35,8.1-4.48,9.52-.11,1.21.31,2.25,1.24,3.1,2.11,1.93,6.15,2.28,8.27,1.89,5.76-1.04,7.98-5.83,10.13-10.46.29-.62.57-1.24.87-1.84l.8-.23c3.83,2,7.74,4,11.53,5.94,8.45,4.32,17.19,8.79,25.55,13.56.95,1.34,1.07,2.96.3,4.25-.74,1.25-2.11,1.88-3.69,1.67-.38-.05-.89-.3-1.34-.52-.18-.09-.35-.17-.51-.24-3-1.33-6.03-3.03-8.95-4.67-2.77-1.55-5.63-3.16-8.51-4.48-1.15-.44-2.13.15-2.55.88-.43.75-.43,1.85.6,2.68l15.7,8.28c1.39,1,1.58,2.65,1.29,3.85-.29,1.19-1.18,2.55-2.81,2.81h-.03c-1.15.18-2.51-.51-3.71-1.12-.29-.15-.58-.29-.84-.41-1.79-.83-3.65-1.83-5.46-2.8-2.46-1.32-5.01-2.68-7.46-3.68l-.3-.13c-.79-.34-1.61-.68-2.6.15-.43.36-.66.84-.69,1.38-.03.62.23,1.27.71,1.77.03.03.06.05.1.07l12.91,6.52c1.19,1.14,1.53,2.8.88,4.24-.51,1.12-1.74,2.24-3.66,2.05-.29-.03-.81-.27-1.19-.45-.13-.06-.24-.11-.35-.16-2.4-1.04-4.86-2.51-7.25-3.94-2.44-1.45-4.96-2.96-7.5-4.06-.91-.28-1.78-.11-2.33.45-.54.56-.68,1.4-.37,2.31.02.06.05.1.09.15,1.51,1.45,3.67,2.46,5.76,3.43,1.78.83,3.46,1.62,4.72,2.64,1.53,1.24,1.6,2.92,1.15,4.08-.58,1.5-2.02,2.41-3.69,2.32-.4-.02-.92-.26-1.38-.47l-.34-.15c-4.76-2.05-9.6-4.84-14.28-7.54-.85-.49-1.73-.99-2.6-1.49h0c-3.86-2.17-17.29-12.87-16.73-31.17,0-.02,0-.03,0-.05-.27-5.24.56-10.51,2.68-15.39,6.09-14.06,20.28-23.73,35.19-26.26,9.41-1.62,19.24-.2,27.84,3.92,8.77,4.14,15.94,10.9,21.81,18.56,19.14,24.52,14.61,50.2-3.67,73.59-1.77,2.28-3.63,4.51-5.65,6.57-2.23,2.25-4.57,4.44-7.05,6.46-.21.18-.43.36-.67.54-.07.05-.14.1-.21.15-1.57,1.24-3.2,2.39-4.9,3.44-5.68,3.66-11.19,6.11-16.55,7.91h0c-1.61.56-3.42,1.1-5.69,1.66-2.59.6-4.91,1.1-6.18,1.48h0c-.77.19-1.54.48-2.27.89-9.64,5.94-2.04,19.75,8.02,14.59,4.02-2.26,7.94-4.49,11.54-6.87.16-.1.32-.22.47-.32h0s.28-.18.77-.53c.37-.26.73-.51,1.09-.78,5.55-3.97,22.08-16.12,29.35-25.07.02-.03.04-.05.07-.08,4.22-4.86,7.89-10.19,11.14-15.76,11.36-19.29,13.79-41.3,2.53-61.32Z"/>
  </g>
</svg>