<?xml version="1.0" encoding="UTF-8"?>
<svg id="Calque_2" data-name="Calque 2" xmlns="http://www.w3.org/2000/svg" viewBox="0 0 141.73 40.86">
  <defs>
    <style>
      .cls-1 {
        fill: #fff;
      }
    </style>
  </defs>
  <g id="Horizontal">
    <g>
      <g>
        <g>
          <polygon class="cls-1" points="49.73 .73 43.71 12.31 37.59 .73 33.42 .73 41.92 16.13 41.92 23.68 45.31 23.68 45.31 16.13 53.88 .73 49.73 .73"/>
          <path class="cls-1" d="M57.67.73h15.08v3.26h-11.7v6.55h10.4v3.26h-10.4v6.64h12.14v3.26h-15.53V.73Z"/>
          <polygon class="cls-1" points="94.89 .73 94.95 16.78 78.29 0 78.13 0 78.13 23.68 81.54 23.68 81.45 7.9 98.14 24.47 98.24 24.47 98.24 .73 94.89 .73"/>
          <path class="cls-1" d="M121.38,21.94c-.34.23-.84.51-1.5.84s-1.44.61-2.34.84c-.9.23-1.88.34-2.96.32-1.79-.02-3.4-.34-4.82-.95-1.42-.61-2.63-1.45-3.62-2.51-.99-1.06-1.75-2.29-2.29-3.67-.54-1.38-.81-2.85-.81-4.41,0-1.73.27-3.31.82-4.76.55-1.44,1.33-2.7,2.36-3.78,1.02-1.08,2.22-1.91,3.6-2.5,1.38-.59,2.89-.89,4.54-.89,1.41,0,2.69.19,3.83.57,1.14.38,2.1.82,2.88,1.33l-1.33,3.16c-.61-.42-1.37-.83-2.26-1.22-.9-.39-1.89-.59-2.99-.59s-2.09.22-3.05.65c-.96.43-1.8,1.03-2.53,1.8-.73.77-1.3,1.67-1.72,2.69-.42,1.02-.63,2.13-.63,3.34s.19,2.35.57,3.38c.38,1.03.92,1.93,1.63,2.69.71.76,1.55,1.35,2.55,1.77.99.42,2.11.63,3.35.63,1.18,0,2.22-.18,3.11-.54.9-.36,1.63-.77,2.2-1.23l1.42,3.04Z"/>
          <path class="cls-1" d="M126.19.73h15.08v3.26h-11.7v6.55h10.4v3.26h-10.4v6.64h12.14v3.26h-15.53V.73Z"/>
        </g>
        <g>
          <path class="cls-1" d="M41.53,29.57c.67,0,1.28.07,1.83.21.55.14,1.14.35,1.78.62l.03.05c-.06.23-.1.43-.14.6s-.07.35-.09.53-.04.42-.07.7l-.2.02c-.34-.68-.8-1.18-1.38-1.49s-1.25-.46-2-.46c-.34,0-.71.08-1.11.25-.4.17-.78.43-1.14.79-.36.36-.66.83-.89,1.42-.23.59-.35,1.3-.35,2.14,0,.64.09,1.25.27,1.84.18.59.44,1.1.76,1.56.33.45.71.81,1.15,1.07.44.26.93.39,1.46.39.77,0,1.44-.13,2-.38.56-.25,1.13-.7,1.71-1.34l.12.05c.03.08.06.19.07.34.02.15.02.27.02.36-.55.67-1.18,1.15-1.88,1.42-.7.27-1.43.41-2.19.41-.89,0-1.67-.14-2.32-.43-.65-.29-1.19-.68-1.61-1.18-.43-.5-.74-1.08-.95-1.72-.21-.65-.31-1.33-.31-2.05,0-.82.15-1.57.45-2.26.3-.69.7-1.29,1.22-1.81s1.1-.91,1.75-1.19,1.33-.42,2.02-.42Z"/>
          <path class="cls-1" d="M58.57,35.02c0,1.1-.22,2.08-.66,2.92-.44.85-1.06,1.5-1.86,1.98-.8.48-1.72.71-2.78.71-.95,0-1.82-.22-2.62-.65-.8-.43-1.43-1.04-1.91-1.84-.48-.79-.72-1.73-.72-2.82,0-.82.13-1.57.4-2.27.27-.7.64-1.31,1.11-1.83.47-.52,1.03-.93,1.66-1.23.63-.29,1.32-.44,2.06-.44.99,0,1.89.23,2.69.68s1.44,1.09,1.91,1.9c.48.82.71,1.77.71,2.87ZM53.04,30.3c-.53,0-1.05.15-1.56.46-.51.31-.93.81-1.26,1.51-.33.7-.5,1.62-.5,2.78,0,1.06.18,1.95.56,2.67.37.72.85,1.26,1.44,1.63s1.22.56,1.88.56,1.19-.17,1.68-.52c.49-.35.88-.86,1.16-1.55.28-.68.42-1.52.42-2.5,0-1.72-.35-2.99-1.04-3.81-.69-.82-1.62-1.23-2.79-1.23Z"/>
          <path class="cls-1" d="M61.93,29.79l.03-.05c.19.03.42.05.7.05.03,0,.11-.01.23-.03l5.68,7.35c.35.46.6.76.75.89.14.13.22-.03.23-.48v-4.42c0-.62-.01-1.21-.03-1.76-.02-.56-.07-1.07-.13-1.55l.03-.05c.2.03.39.05.58.05s.38-.02.58-.05l.03.05c-.09,1.23-.15,2.38-.19,3.48s-.06,2.19-.07,3.3c-.01,1.11-.03,2.29-.07,3.55-.01.15-.04.28-.07.37-.04.09-.12.14-.24.14-.28,0-.51-.13-.71-.4l-5.78-7.3c-.31-.4-.49-.58-.55-.55-.06.03-.09.3-.09.81v3.96c0,.62.01,1.21.03,1.76.02.56.07,1.07.13,1.55l-.03.05c-.2-.03-.39-.05-.58-.05s-.38.02-.58.05l-.03-.05c.07-.66.12-1.44.16-2.33.04-.89.07-1.83.08-2.82.02-.99.02-1.96,0-2.92-.02-.96-.04-1.83-.07-2.62Z"/>
          <path class="cls-1" d="M76.76,39.91c.33,0,.64-.07.94-.22.29-.15.53-.37.72-.66.19-.29.28-.64.28-1.05,0-.48-.09-.86-.26-1.16-.17-.3-.4-.54-.7-.74s-.62-.36-.99-.5c-.45-.2-.9-.43-1.34-.69-.44-.26-.8-.59-1.08-.99-.28-.4-.42-.88-.42-1.46,0-.61.18-1.14.55-1.59.36-.45.79-.78,1.28-.99.24-.1.49-.17.73-.22.24-.04.47-.07.7-.07.65,0,1.17.06,1.55.19.38.13.74.31,1.08.55l.03.05c-.08.24-.15.5-.22.79s-.12.57-.16.87l-.17.02c-.22-.52-.54-.94-.95-1.26-.41-.32-.85-.48-1.3-.48-.19,0-.37.01-.54.04s-.33.08-.47.16c-.21.11-.39.31-.54.6-.15.29-.22.59-.22.89,0,.45.11.82.33,1.1.22.28.49.5.8.66.31.16.61.3.89.41.44.17.89.38,1.35.65.46.27.84.62,1.15,1.05s.46.97.46,1.61-.16,1.2-.48,1.67c-.32.48-.75.84-1.29,1.1-.54.26-1.15.39-1.84.39-.64,0-1.19-.06-1.64-.18-.45-.12-.91-.31-1.37-.56l-.03-.05c.07-.25.14-.53.22-.82s.13-.59.17-.89l.17-.02c.18.32.41.62.7.89.29.28.61.49.95.65.34.16.67.24.98.24Z"/>
          <path class="cls-1" d="M90.85,33.1c0-.62-.01-1.21-.03-1.76-.02-.56-.07-1.07-.13-1.55l.03-.05c.2.03.39.05.58.05s.38-.02.58-.05l.03.05c-.07.44-.11.95-.13,1.52s-.03,1.17-.03,1.79v2.48c0,.98-.12,1.86-.37,2.62-.25.76-.68,1.36-1.31,1.79s-1.5.65-2.64.65c-.38,0-.78-.06-1.23-.17-.44-.11-.86-.31-1.27-.6-.4-.29-.73-.71-.99-1.24s-.38-1.22-.38-2.06v-3.46c0-.62-.01-1.21-.03-1.76-.02-.56-.07-1.07-.13-1.55l.03-.05c.1.01.24.02.42.03.18.01.32.02.42.02s.24,0,.42-.02c.18-.01.32-.02.42-.03l.03.05c-.07.44-.11.95-.13,1.52-.02.57-.03,1.17-.03,1.79v2.92c0,.18,0,.42.02.72s.07.63.15.97.22.67.42.97c.2.3.47.55.83.75.35.19.81.29,1.36.29.7,0,1.25-.11,1.66-.33.41-.22.72-.52.93-.89.2-.37.34-.78.4-1.23.06-.45.09-.91.09-1.37v-2.78Z"/>
          <path class="cls-1" d="M97.18,33.1v4.06c0,.07,0,.2,0,.41,0,.21.01.44.02.7,0,.25.02.49.03.71.02.22.04.38.07.48.55,0,1.1-.02,1.66-.06.55-.04,1.05-.08,1.51-.12.45-.04.95-.1,1.51-.18l.03.07c-.02.18-.03.37-.03.58,0,.08,0,.19,0,.33,0,.14.01.28.02.4l-.03.05c-.13-.02-.29-.04-.46-.04-.18,0-.35,0-.53,0h-4.52c-.28,0-.56.02-.86.05l-.02-.05c.07-.45.11-.96.13-1.53s.03-1.16.03-1.78v-4.06c0-.62-.01-1.21-.03-1.76s-.07-1.07-.13-1.55l.03-.05c.1.01.24.02.42.03.18.01.32.02.42.02s.24,0,.43-.02c.19-.01.33-.02.43-.03l.02.05c-.07.44-.11.95-.13,1.52s-.03,1.17-.03,1.79Z"/>
          <path class="cls-1" d="M107.02,33.1c0-.07,0-.21,0-.42,0-.22-.01-.46-.02-.72s-.02-.51-.03-.75c-.02-.23-.04-.4-.07-.5-1.1,0-2.22.08-3.35.23l-.03-.07c.03-.25.03-.62,0-1.09l.03-.05c.13.01.29.02.46.03.18.01.35.02.53.02h6.39c.18,0,.35,0,.53-.02.18-.01.33-.02.46-.03l.03.05c-.03.47-.03.84,0,1.09l-.03.07c-1.12-.15-2.23-.23-3.35-.23-.03.1-.06.27-.07.5-.02.23-.03.48-.03.75,0,.27-.01.5-.02.72,0,.22,0,.36,0,.42v4.06c0,.62.01,1.21.03,1.76.02.56.07,1.07.13,1.55l-.03.05c-.1-.02-.24-.04-.42-.04-.18,0-.32,0-.42,0s-.24,0-.42,0c-.18,0-.32.02-.42.04l-.03-.05c.07-.45.11-.96.13-1.53.02-.57.03-1.16.03-1.78v-4.06Z"/>
          <path class="cls-1" d="M114.64,33.1c0-.62-.01-1.21-.03-1.76-.02-.56-.07-1.07-.13-1.55l.03-.05c.1.01.24.02.42.03.18.01.32.02.42.02s.24,0,.42-.02c.18-.01.32-.02.42-.03l.03.05c-.07.44-.11.95-.13,1.52-.02.57-.03,1.17-.03,1.79v4.06c0,.62.01,1.21.03,1.76.02.56.07,1.07.13,1.55l-.03.05c-.1-.02-.24-.04-.42-.04-.18,0-.32,0-.42,0s-.24,0-.42,0c-.18,0-.32.02-.42.04l-.03-.05c.07-.45.11-.96.13-1.53.02-.57.03-1.16.03-1.78v-4.06Z"/>
          <path class="cls-1" d="M120.28,29.79l.03-.05c.19.03.42.05.7.05.03,0,.11-.01.23-.03l5.68,7.35c.35.46.6.76.75.89.14.13.22-.03.23-.48v-4.42c0-.62-.01-1.21-.03-1.76-.02-.56-.07-1.07-.13-1.55l.03-.05c.2.03.39.05.58.05s.38-.02.58-.05l.03.05c-.09,1.23-.15,2.38-.19,3.48s-.06,2.19-.07,3.3c-.01,1.11-.03,2.29-.07,3.55-.01.15-.04.28-.07.37-.04.09-.12.14-.24.14-.28,0-.51-.13-.71-.4l-5.78-7.3c-.31-.4-.49-.58-.55-.55-.06.03-.09.3-.09.81v3.96c0,.62.01,1.21.03,1.76.02.56.07,1.07.13,1.55l-.03.05c-.2-.03-.39-.05-.58-.05s-.38.02-.58.05l-.03-.05c.07-.66.12-1.44.16-2.33.04-.89.07-1.83.08-2.82.02-.99.02-1.96,0-2.92-.02-.96-.04-1.83-.07-2.62Z"/>
          <path class="cls-1" d="M140.14,38.53c0-.62-.01-1.18-.03-1.68-.02-.5-.07-.99-.13-1.47l.03-.05c.29.03.57.05.85.05s.57-.02.86-.05l.02.05c-.07.44-.11.87-.13,1.28-.02.41-.03.92-.03,1.54v.1c0,.09,0,.22.02.4.02.18.06.31.14.4v.05c-.56.46-1.2.83-1.91,1.09s-1.54.4-2.5.4c-.83,0-1.57-.15-2.24-.44-.66-.29-1.23-.69-1.7-1.19-.47-.5-.83-1.08-1.07-1.73-.24-.65-.36-1.34-.36-2.05,0-.92.17-1.73.5-2.43.33-.7.77-1.29,1.33-1.76.55-.47,1.17-.84,1.86-1.08.69-.25,1.39-.37,2.1-.37.51,0,.99.04,1.44.12s.86.18,1.21.29c.35.11.73.25,1.13.41l.03.05c-.09.31-.16.6-.21.88-.05.28-.09.62-.12,1.04l-.2.02c-.38-.63-.87-1.13-1.47-1.52s-1.29-.57-2.04-.57-1.4.2-1.98.59c-.58.39-1.04.94-1.37,1.65-.33.71-.5,1.55-.5,2.52,0,.54.07,1.1.22,1.66.14.57.37,1.1.7,1.58s.74.88,1.25,1.17c.51.29,1.14.44,1.88.44.45,0,.9-.04,1.35-.12.45-.08.81-.25,1.08-.51v-.75Z"/>
        </g>
      </g>
      <g>
        <path class="cls-1" d="M21.85,27.21h0c-1-.81-2.4-.81-3.39-.09.02-.02-.36.29-.52.49,0,0,0,0,0,0-.02.03-.04.05-.06.08-.01.02-.03.03-.04.05-.36.5-.53,1.08-.53,1.65-.06.56-.07,1.16-.16,1.75-.13.63-.25.99-.39,1.27-.03.06-.32.69-.76,1.27-.47.57.25,1.16.72.58.47-.55,1.03-.96,1.09-1,.24-.19.57-.39,1.16-.65.56-.21,1.14-.34,1.68-.52.57-.11,1.1-.4,1.51-.86.01-.02.03-.03.04-.05.02-.02.04-.05.07-.07,0,0,0,0,0,0,.16-.19.38-.63.37-.61.5-1.12.22-2.49-.78-3.3ZM21.28,30.25c-.54.66-1.51.76-2.18.23-.66-.54-.76-1.51-.23-2.18s1.51-.76,2.18-.23c.66.54.76,1.51.23,2.18Z"/>
        <path class="cls-1" d="M23.75.73H3.32C1.49.73,0,2.21,0,4.05v33.49c0,1.83,1.49,3.32,3.32,3.32h20.43c1.83,0,3.32-1.49,3.32-3.32V4.05c0-1.83-1.49-3.32-3.32-3.32ZM26.21,37.54c0,1.36-1.11,2.47-2.47,2.47H3.32c-1.36,0-2.47-1.11-2.47-2.47V4.05C.85,2.69,1.96,1.58,3.32,1.58h20.43c1.36,0,2.47,1.11,2.47,2.47v33.49Z"/>
        <path class="cls-1" d="M12.29,11.35c-.5,1.13-1.8,4.1-1.79,4.24,0,.12,1.32,1.46,2.04,2.2.17.17.43.06.49-.17.24-.93.11-3.04.09-4.02-.02-.96-.1-1.77-.3-2.25-.09-.21-.43-.2-.52,0Z"/>
        <path class="cls-1" d="M24.33,3.74c-1.4.37-4.11.96-4.64,1.79-.57.89-.96,5.2-.74,7.38.1,1,.86,2.7,1.34,4.31.07.22.1.45.1.68v2.84c0,.23-.18.41-.41.41h-.68c-.23,0-.41-.18-.41-.41v-2.65s-.01-.07-.02-.11c-.15-.54-1.38-4.87-1.38-5.66,0-.85-.03-6.84.1-7.06.13-.22-1.6.32-2.13,1.45-.45.97-1.13,1.99-1.55,2.79-.14.26-.29.48-.2.85.15.59.56,1.98.55,3.25,0,.68.11,2.82.77,3.37,1.93,1.62,1.91,2.1,2.1,3.83.02.17-.1.34-.27.34h-.64c-.27,0-.36-.08-.37-.2-.06-.71.08-1.15-.74-1.93-.3-.28-.79-.25-.79.02v2.12h-1.01c-.23,0-.41-.18-.41-.41v-.51c0-.11-.04-.21-.11-.29l-2.81-3.07c-.12-.16-.34-.21-.52-.11l-1.05.58c-.13.07-.21.21-.21.36v3.05c0,.23-.18.41-.41.41h-.64c-.23,0-.41-.18-.41-.41v-3.71c0-.14.07-.27.19-.35.53-.33,2-1.29,2.31-2.02.38-.89,1.69-3.74,2.68-4.95.99-1.22,2.74-4.78,3.09-5.27.35-.49,2.05-.93,3.45-1.29.27-.07.61-.14.98-.22H4.47c-1.29,0-2.27.68-2.27,2.37v17.03h4.53v5.67c0,1.1,1.45,1.1,1.45,0v-5.67h1.63v9.14c0,.98,1.29.98,1.29,0v-9.14h1.8v6.93c0,1.1,1.42,1.1,1.42,0v-6.93h1.53v3.21c0,.98,1.29.98,1.29,0v-3.21h1.75v1.04c0,1.1,1.5,1.1,1.5,0v-1.04h4.48V5.3c0-.65-.15-1.15-.4-1.52-.03-.05-.09-.07-.14-.05Z"/>
        <path class="cls-1" d="M14.74,35.53s0,0,0,0c-.01,0-.03-.01-.04-.02,0,0-.02,0-.03-.01-.24-.11-.51-.13-.75-.08-.25.02-.5.07-.76.09-.28,0-.45-.02-.58-.06-.04-.01-.71-.16-1.01-.49-.19-.22-.29-.49-.43-.72-.06-.12-.15-.22-.26-.3,0,0,0,0,0,0-.03-.02-.05-.04-.08-.05,0,0,0,0,0,0,0,0,0,0,0,0-.03-.02-.07-.03-.1-.04,0,0,0,0,0,0-.4-.14-.85.02-1.05.41h0c-.2.38-.08.85.27,1.09,0,0,0,0,0,0,.03.02.06.04.09.06,0,0,0,0,0,0,0,0,0,0,0,0,.03.01.06.03.09.04,0,0,0,0,0,0,.13.05.26.06.39.04.27-.02.54-.09.84-.06.44.06.95.52.98.55.1.09.22.21.38.44.14.22.25.46.37.67.1.23.27.43.5.57,0,0,.02,0,.02.01.01,0,.02.01.04.02,0,0,0,0,0,0,.1.05.31.11.29.1.53.12,1.08-.13,1.34-.63h0c.26-.5.14-1.1-.26-1.46.01,0-.16-.13-.25-.18Z"/>
        <circle class="cls-1" cx="7.46" cy="32.2" r=".73"/>
      </g>
    </g>
  </g>
</svg>